<?xml version="1.0" encoding="UTF-8" standalone="no"?>
<!-- Created with Inkscape (http://www.inkscape.org/) -->

<svg
   xmlns:dc="http://purl.org/dc/elements/1.1/"
   xmlns:cc="http://creativecommons.org/ns#"
   xmlns:rdf="http://www.w3.org/1999/02/22-rdf-syntax-ns#"
   xmlns:svg="http://www.w3.org/2000/svg"
   xmlns="http://www.w3.org/2000/svg"
   xmlns:sodipodi="http://sodipodi.sourceforge.net/DTD/sodipodi-0.dtd"
   xmlns:inkscape="http://www.inkscape.org/namespaces/inkscape"
   width="150.32095"
   height="52.127529"
   viewBox="0 0 150.32095 52.127525"
   id="svg4168"
   version="1.1"
   inkscape:version="0.91 r13725"
   sodipodi:docname="arrow2.svg">
  <defs
     id="defs4170" />
  <sodipodi:namedview
     id="base"
     pagecolor="#ffffff"
     bordercolor="#666666"
     borderopacity="1.0"
     inkscape:pageopacity="0.0"
     inkscape:pageshadow="2"
     inkscape:zoom="2.8"
     inkscape:cx="49.916348"
     inkscape:cy="-24.829915"
     inkscape:document-units="px"
     inkscape:current-layer="layer1"
     showgrid="false"
     units="px"
     inkscape:window-width="1440"
     inkscape:window-height="852"
     inkscape:window-x="0"
     inkscape:window-y="0"
     inkscape:window-maximized="1"
     fit-margin-top="0"
     fit-margin-left="0"
     fit-margin-right="0"
     fit-margin-bottom="0" />
  <metadata
     id="metadata4173">
    <rdf:RDF>
      <cc:Work
         rdf:about="">
        <dc:format>image/svg+xml</dc:format>
        <dc:type
           rdf:resource="http://purl.org/dc/dcmitype/StillImage" />
        <dc:title></dc:title>
      </cc:Work>
    </rdf:RDF>
  </metadata>
  <g
     inkscape:label="Layer 1"
     inkscape:groupmode="layer"
     id="layer1"
     transform="translate(-22.492954,-891.32928)">
    <path
       style="fill:#14c269;fill-opacity:0"
       d="m 82.128216,1038.2584 c -4.336446,-0.5434 -13.87688,-2.7859 -17.710849,-4.1629 -9.876385,-3.5471 -19.515452,-9.5012 -27.279691,-16.8507 -2.76674,-2.619 -5.030441,-5.0278 -5.030441,-5.353 0,-0.3252 1.588631,0.8795 3.530297,2.6771 17.018932,15.7566 38.609816,23.3727 60.207426,21.2381 33.178842,-3.2792 58.963052,-26.0915 65.692932,-58.12091 1.42325,-6.77365 1.44647,-20.36184 0.0461,-26.97034 -4.75223,-22.42603 -18.67823,-40.78914 -38.6841,-51.00962 -12.18782,-6.22643 -21.86438,-8.58986 -35.148033,-8.58466 -13.335582,0.005 -22.097671,1.97097 -33.476628,7.51036 -14.842403,7.22543 -26.011934,18.16788 -33.755712,33.06944 -1.830359,3.52221 -3.47292,6.25902 -3.650136,6.08181 -0.515931,-0.51593 2.119949,-7.2995 5.077351,-13.06681 6.754463,-13.17207 18.35437,-24.55081 32.229633,-31.61513 10.010631,-5.09673 20.194382,-7.69053 32.157613,-8.19055 37.951032,-1.5862 71.598712,24.62471 79.633042,62.03265 1.76999,8.24113 1.9245,22.6529 0.32324,30.15089 -3.32609,15.57461 -9.9757,27.99237 -20.78622,38.81717 -11.9945,12.0102 -26.49013,19.2959 -43.54504,21.886 -5.120111,0.7776 -15.398394,1.0166 -19.830804,0.4611 z m -14.799107,-22.0263 c 7.934672,-4.9645 15.077301,-20.41276 15.30349,-33.09873 l 0.08758,-4.91209 -9.76741,-3.99768 c -12.004685,-4.91336 -16.62972,-7.32175 -25.78543,-13.42723 -8.015759,-5.34529 -20.010547,-14.46698 -19.584268,-14.89326 0.350378,-0.35037 0.459128,-0.29315 15.574444,8.1954 13.433422,7.54402 19.434163,10.38381 32.880821,15.56052 10.520253,4.0501 13.256632,4.22474 23.436743,1.49576 14.309641,-3.83598 22.485661,-8.18216 30.586991,-16.25932 2.93899,-2.93023 6.65581,-7.25897 8.2596,-9.61942 5.22334,-7.68775 4.58724,-4.58504 -1.04367,5.09072 -7.7665,13.34538 -20.93961,22.17619 -40.350681,27.04975 -3.58138,0.89918 -6.797249,1.92705 -7.146372,2.28414 -0.349117,0.3571 -0.970573,2.38077 -1.381011,4.49704 -2.510219,12.94315 -11.63755,27.9287 -19.419341,31.8834 -3.074325,1.5624 -4.049764,1.6515 -1.651486,0.151 z m 15.983036,-49.11882 c -4.113217,-2.54071 -5.623661,-5.87991 -5.623661,-12.43243 0,-4.63685 1.398386,-10.66882 3.354999,-14.47186 2.295549,-4.46183 7.811052,-8.71036 11.272533,-8.68311 2.056218,0.0162 6.054383,1.81281 7.395483,3.32324 0.554561,0.62458 1.716741,2.68309 2.582651,4.57445 1.43901,3.14324 1.55284,3.93063 1.32404,9.1594 -0.29335,6.70381 -1.91516,10.8192 -5.869411,14.89379 -4.335835,4.46778 -10.554799,6.0343 -14.436634,3.63652 z m 7.90013,-3.76374 c 6.708664,-4.13615 10.223355,-17.32826 6.535394,-24.53011 -2.880743,-5.62552 -7.554745,-6.3487 -12.55956,-1.94329 -4.122628,3.62888 -5.892537,7.85831 -6.196877,14.80827 -0.211107,4.82071 -0.07092,6.01582 0.937417,7.99152 2.758601,5.40512 6.499673,6.62311 11.283626,3.67361 z"
       id="path5689"
       inkscape:connector-curvature="0" />
    <path
       style="fill:#000000"
       d="m 64.126092,940.31844 c -13.296159,-9.44293 -16.44989,-11.14914 -29.67728,-16.05569 -10.094782,-3.74456 -11.340111,-4.46226 -11.861472,-6.836 -0.434881,-1.98 0.635541,-3.35314 3.15891,-4.05226 16.3469,-4.52905 27.533884,-9.98334 40.662411,-19.82525 3.16561,-2.37312 5.038751,-2.81244 6.256096,-1.4673 1.832632,2.02503 -0.274537,9.8611 -4.507119,16.76093 l -0.967166,1.57665 31.856008,0.22169 c 17.5208,0.12197 35.98974,0.38996 41.04208,0.59563 5.05233,0.20566 14.23512,0.49627 20.40619,0.6458 8.96834,0.21733 11.33041,0.38217 11.76964,0.8214 0.40742,0.40742 0.54952,1.5839 0.54952,4.5493 0,3.79023 -0.0452,4.01789 -0.86119,4.34574 -0.95252,0.38265 -60.8767,1.18951 -87.395202,1.17676 -9.28016,-0.005 -16.98674,0.10564 -17.12574,0.24459 -0.138997,0.139 0.515384,1.66183 1.454185,3.38409 2.061463,3.7818 3.947397,9.24454 4.275592,12.38453 0.230413,2.20449 0.189719,2.3566 -0.930009,3.47634 -1.931335,1.93133 -3.009159,1.67243 -8.105454,-1.94695 z m -1.930612,-13.72905 -2.83876,-5.71813 0.779708,-1.04433 c 0.428836,-0.57438 1.369627,-1.1992 2.090645,-1.38849 1.673823,-0.4394 73.907497,-0.0568 86.234557,0.45676 5.02623,0.2094 11.82966,0.41657 15.11873,0.46037 l 5.98015,0.0796 0.11457,-2.6042 0.11457,-2.60418 -21.35732,0.25225 c -11.74652,0.13873 -36.09984,0.36499 -54.118467,0.50281 L 61.55271,915.23241 60.727315,914.407 c -0.453972,-0.45397 -0.825399,-1.22109 -0.825399,-1.70473 0,-0.48363 1.03282,-2.55615 2.295154,-4.6056 2.582995,-4.1936 3.828889,-6.5258 3.828889,-7.16732 0,-0.23907 -0.818134,0.18553 -1.818075,0.94356 -3.260758,2.47192 -12.45571,8.53569 -15.961883,10.52636 -1.884702,1.07006 -5.109485,2.67418 -7.166184,3.56469 -2.056698,0.89053 -3.614966,1.72682 -3.462817,1.85843 0.152151,0.13162 2.085144,0.88528 4.29554,1.67481 6.235903,2.22742 16.287093,7.90946 21.625527,12.22515 0.631542,0.51055 1.22655,0.85106 1.322242,0.7567 0.09569,-0.0944 -1.103461,-2.74472 -2.664778,-5.88969 z"
       id="path6675"
       inkscape:connector-curvature="0" />
  </g>
</svg>
