<?xml version="1.0" encoding="UTF-8" standalone="no"?>
<!-- Created with Inkscape (http://www.inkscape.org/) -->

<svg
   xmlns:dc="http://purl.org/dc/elements/1.1/"
   xmlns:cc="http://creativecommons.org/ns#"
   xmlns:rdf="http://www.w3.org/1999/02/22-rdf-syntax-ns#"
   xmlns:svg="http://www.w3.org/2000/svg"
   xmlns="http://www.w3.org/2000/svg"
   xmlns:sodipodi="http://sodipodi.sourceforge.net/DTD/sodipodi-0.dtd"
   xmlns:inkscape="http://www.inkscape.org/namespaces/inkscape"
   width="128"
   height="180"
   viewBox="0 0 128 180"
   id="svg4168"
   version="1.1"
   inkscape:version="0.91 r13725"
   sodipodi:docname="baby.svg">
  <defs
     id="defs4170" />
  <sodipodi:namedview
     id="base"
     pagecolor="#ffffff"
     bordercolor="#666666"
     borderopacity="1.0"
     inkscape:pageopacity="0.0"
     inkscape:pageshadow="2"
     inkscape:zoom="2.8"
     inkscape:cx="124.19501"
     inkscape:cy="84.075448"
     inkscape:document-units="px"
     inkscape:current-layer="layer1"
     showgrid="false"
     units="px"
     inkscape:window-width="1440"
     inkscape:window-height="852"
     inkscape:window-x="0"
     inkscape:window-y="0"
     inkscape:window-maximized="1" />
  <metadata
     id="metadata4173">
    <rdf:RDF>
      <cc:Work
         rdf:about="">
        <dc:format>image/svg+xml</dc:format>
        <dc:type
           rdf:resource="http://purl.org/dc/dcmitype/StillImage" />
        <dc:title></dc:title>
      </cc:Work>
    </rdf:RDF>
  </metadata>
  <g
     inkscape:label="Layer 1"
     inkscape:groupmode="layer"
     id="layer1"
     transform="translate(0,-872.36216)">
    <path
       style="fill:#000000"
       d="m 34.157658,1040.1645 c -15.876551,-15.8611 -18.7398,-19.9478 -18.7398,-26.7477 0,-4.9204 0.402281,-5.5243 10.306341,-15.46898 l 10.306346,-10.34865 10.053719,9.93237 10.053722,9.93236 -7.384186,7.3747 -7.384185,7.3747 9.4143,9.5471 c 7.476617,7.582 9.414302,10.2366 9.414302,12.8975 0,4.5483 -4.189425,8.2928 -9.278448,8.2928 -3.525849,0 -5.376639,-1.4118 -16.762111,-12.7862 z m 34.717269,10.2602 c -3.769549,-5.3272 -2.438624,-8.8243 6.824183,-17.9319 4.736383,-4.657 8.611607,-8.9777 8.611607,-9.6017 0,-0.6238 -3.216183,-4.3463 -7.147072,-8.2722 l -7.147071,-7.1379 9.705201,-9.6568 c 5.337864,-5.31121 10.270834,-9.65675 10.962151,-9.65675 0.691317,0 5.447587,4.24974 10.569484,9.44383 15.12325,15.33662 14.82264,17.68602 -4.956049,38.73322 -7.877542,8.3829 -15.131179,15.5486 -16.119171,15.9238 -4.1183,1.5643 -9.514574,0.6841 -11.303263,-1.8436 z M 1.6392869,979.07505 c -1.3356641,-1.32209 -2.29642859,-3.78847 -2.29642859,-5.89519 0,-3.17365 2.52062129,-6.13114 20.35785769,-23.88629 15.174619,-15.10476 21.386902,-20.54712 24.399556,-21.37558 5.240105,-1.44099 33.845066,-1.44099 39.085171,0 3.012663,0.82846 9.224937,6.27082 24.399547,21.37558 17.34305,17.26322 20.35786,20.77124 20.35786,23.68816 0,4.4695 -4.16044,8.36643 -8.93217,8.36643 -3.0417,0 -5.46594,-1.80832 -15.23666,-11.36548 -6.3907,-6.251 -12.092584,-11.36548 -12.670847,-11.36548 -0.578263,0 -1.051386,4.09157 -1.051386,9.09238 l 0,9.09239 -26.983035,0 -26.983035,0 0,-9.09239 c 0,-5.00081 -0.397218,-9.09238 -0.882701,-9.09238 -0.485489,0 -6.030281,5.11448 -12.321766,11.36548 -9.832216,9.76896 -11.966271,11.36548 -15.1922937,11.36548 -2.2222885,0 -4.6899579,-0.92719 -6.0496694,-2.27311 z M 55.13543,921.59613 c -10.982777,-3.98312 -16.77151,-12.23949 -16.728066,-23.85894 0.05913,-15.81598 11.263101,-26.28123 27.069768,-25.28496 13.496467,0.85066 22.450459,9.97419 23.232416,23.67226 0.510094,8.93562 -1.421993,14.02694 -7.563516,19.9309 -6.88219,6.61598 -17.064895,8.78509 -26.010602,5.54074 z"
       id="path5003"
       inkscape:connector-curvature="0" />
  </g>
</svg>
