<?xml version="1.0" encoding="UTF-8" standalone="no"?>
<!-- Created with Inkscape (http://www.inkscape.org/) -->

<svg
   xmlns:dc="http://purl.org/dc/elements/1.1/"
   xmlns:cc="http://creativecommons.org/ns#"
   xmlns:rdf="http://www.w3.org/1999/02/22-rdf-syntax-ns#"
   xmlns:svg="http://www.w3.org/2000/svg"
   xmlns="http://www.w3.org/2000/svg"
   xmlns:sodipodi="http://sodipodi.sourceforge.net/DTD/sodipodi-0.dtd"
   xmlns:inkscape="http://www.inkscape.org/namespaces/inkscape"
   width="197.35399"
   height="146.63422"
   viewBox="0 0 197.35399 146.6342"
   id="svg4168"
   version="1.1"
   inkscape:version="0.91 r13725"
   sodipodi:docname="cloud.svg">
  <defs
     id="defs4170" />
  <sodipodi:namedview
     id="base"
     pagecolor="#ffffff"
     bordercolor="#666666"
     borderopacity="1.0"
     inkscape:pageopacity="0.0"
     inkscape:pageshadow="2"
     inkscape:zoom="2.8"
     inkscape:cx="53.166818"
     inkscape:cy="66.777597"
     inkscape:document-units="px"
     inkscape:current-layer="layer1"
     showgrid="false"
     units="px"
     inkscape:window-width="1440"
     inkscape:window-height="852"
     inkscape:window-x="0"
     inkscape:window-y="0"
     inkscape:window-maximized="1"
     fit-margin-top="0"
     fit-margin-left="0"
     fit-margin-right="0"
     fit-margin-bottom="0" />
  <metadata
     id="metadata4173">
    <rdf:RDF>
      <cc:Work
         rdf:about="">
        <dc:format>image/svg+xml</dc:format>
        <dc:type
           rdf:resource="http://purl.org/dc/dcmitype/StillImage" />
        <dc:title></dc:title>
      </cc:Work>
    </rdf:RDF>
  </metadata>
  <g
     inkscape:label="Layer 1"
     inkscape:groupmode="layer"
     id="layer1"
     transform="translate(-19.242484,-888.4301)">
    <path
       style="fill:#14c269;fill-opacity:0"
       d="m 82.128216,1038.2584 c -4.336446,-0.5434 -13.87688,-2.7859 -17.710849,-4.1629 -9.876385,-3.5471 -19.515452,-9.5012 -27.279691,-16.8507 -2.76674,-2.619 -5.030441,-5.0278 -5.030441,-5.353 0,-0.3252 1.588631,0.8795 3.530297,2.6771 17.018932,15.7566 38.609816,23.3727 60.207426,21.2381 33.178842,-3.2792 58.963052,-26.0915 65.692932,-58.12091 1.42325,-6.77365 1.44647,-20.36184 0.0461,-26.97034 -4.75223,-22.42603 -18.67823,-40.78914 -38.6841,-51.00962 -12.18782,-6.22643 -21.86438,-8.58986 -35.148033,-8.58466 -13.335582,0.005 -22.097671,1.97097 -33.476628,7.51036 -14.842403,7.22543 -26.011934,18.16788 -33.755712,33.06944 -1.830359,3.52221 -3.47292,6.25902 -3.650136,6.08181 -0.515931,-0.51593 2.119949,-7.2995 5.077351,-13.06681 6.754463,-13.17207 18.35437,-24.55081 32.229633,-31.61513 10.010631,-5.09673 20.194382,-7.69053 32.157613,-8.19055 37.951032,-1.5862 71.598712,24.62471 79.633042,62.03265 1.76999,8.24113 1.9245,22.6529 0.32324,30.15089 -3.32609,15.57461 -9.9757,27.99237 -20.78622,38.81717 -11.9945,12.0102 -26.49013,19.2959 -43.54504,21.886 -5.120111,0.7776 -15.398394,1.0166 -19.830804,0.4611 z m -14.799107,-22.0263 c 7.934672,-4.9645 15.077301,-20.41276 15.30349,-33.09873 l 0.08758,-4.91209 -9.76741,-3.99768 c -12.004685,-4.91336 -16.62972,-7.32175 -25.78543,-13.42723 -8.015759,-5.34529 -20.010547,-14.46698 -19.584268,-14.89326 0.350378,-0.35037 0.459128,-0.29315 15.574444,8.1954 13.433422,7.54402 19.434163,10.38381 32.880821,15.56052 10.520253,4.0501 13.256632,4.22474 23.436743,1.49576 14.309641,-3.83598 22.485661,-8.18216 30.586991,-16.25932 2.93899,-2.93023 6.65581,-7.25897 8.2596,-9.61942 5.22334,-7.68775 4.58724,-4.58504 -1.04367,5.09072 -7.7665,13.34538 -20.93961,22.17619 -40.350681,27.04975 -3.58138,0.89918 -6.797249,1.92705 -7.146372,2.28414 -0.349117,0.3571 -0.970573,2.38077 -1.381011,4.49704 -2.510219,12.94315 -11.63755,27.9287 -19.419341,31.8834 -3.074325,1.5624 -4.049764,1.6515 -1.651486,0.151 z m 15.983036,-49.11882 c -4.113217,-2.54071 -5.623661,-5.87991 -5.623661,-12.43243 0,-4.63685 1.398386,-10.66882 3.354999,-14.47186 2.295549,-4.46183 7.811052,-8.71036 11.272533,-8.68311 2.056218,0.0162 6.054383,1.81281 7.395483,3.32324 0.554561,0.62458 1.716741,2.68309 2.582651,4.57445 1.43901,3.14324 1.55284,3.93063 1.32404,9.1594 -0.29335,6.70381 -1.91516,10.8192 -5.869411,14.89379 -4.335835,4.46778 -10.554799,6.0343 -14.436634,3.63652 z m 7.90013,-3.76374 c 6.708664,-4.13615 10.223355,-17.32826 6.535394,-24.53011 -2.880743,-5.62552 -7.554745,-6.3487 -12.55956,-1.94329 -4.122628,3.62888 -5.892537,7.85831 -6.196877,14.80827 -0.211107,4.82071 -0.07092,6.01582 0.937417,7.99152 2.758601,5.40512 6.499673,6.62311 11.283626,3.67361 z"
       id="path5689"
       inkscape:connector-curvature="0" />
    <path
       style="fill:#000000"
       d="m 84.951259,1034.3887 c -13.332779,-2.9594 -23.385779,-10.8531 -28.941318,-22.725 -1.162477,-2.4842 -1.828157,-3.3393 -2.599295,-3.3393 -2.150855,0 -7.519335,-1.6858 -11.580861,-3.6365 C 31.374433,999.66615 23.219942,989.78371 20.165637,978.43293 19.029586,974.21098 18.91749,963.48969 19.966261,959.36412 23.253134,946.4347 32.039664,936.27575 44.237007,931.3024 l 4.380647,-1.78617 0.80367,-3.50054 c 3.18397,-13.86839 12.213964,-25.58885 24.702452,-32.0625 19.447867,-10.08115 43.215874,-6.08501 57.855734,9.72741 2.78505,3.00812 3.4118,3.45148 4.23098,2.99302 2.72659,-1.52585 7.61322,-2.55119 13.42325,-2.81645 5.30057,-0.24203 6.85263,-0.11757 10.82278,0.86734 11.19181,2.77664 20.38183,10.03428 25.50822,20.14462 1.8289,3.60698 2.14527,3.95033 4.20937,4.56837 9.02437,2.7021 17.80825,10.02634 22.2838,18.58083 3.26872,6.2478 4.17466,10.19907 4.13747,18.04564 -0.0286,6.03 -0.20841,7.48416 -1.34888,10.90865 -2.08968,6.27437 -4.74135,10.51122 -9.65196,15.4218 -6.68602,6.686 -14.33356,10.38518 -22.98196,11.11608 l -3.7567,0.3177 -2.3897,4.8139 c -5.16577,10.4057 -14.13734,17.144 -26.02993,19.5498 -8.15451,1.6496 -17.41362,-0.043 -24.87163,-4.5456 l -2.42006,-1.461 -3.76439,3.1664 c -4.57368,3.847 -11.47576,7.3016 -17.4217,8.7198 -4.98709,1.1894 -12.450454,1.3287 -17.007213,0.3172 z m 16.491851,-16.078 c 6.05104,-2.3777 9.99225,-5.8297 14.2425,-12.4743 1.57246,-2.4583 3.35407,-5.2086 3.95912,-6.11206 l 1.1001,-1.64246 6.19678,6.28762 c 5.3632,5.4417 6.61272,6.4428 9.28899,7.442 9.78089,3.6523 20.06769,0.4069 25.43265,-8.0239 1.82518,-2.8681 2.87433,-6.44167 3.70414,-12.61644 0.51006,-3.79543 0.74498,-4.48667 1.45455,-4.2792 2.68689,0.78563 10.06384,1.43357 13.72052,1.20553 5.60201,-0.34941 10.14914,-2.45671 14.33644,-6.64389 4.26697,-4.26689 6.13996,-8.52432 6.43017,-14.61654 0.33866,-7.10955 -1.84104,-12.56059 -6.92293,-17.31298 -4.26752,-3.99083 -7.05233,-5.26408 -14.0559,-6.42653 -2.38983,-0.39667 -4.50312,-0.89953 -4.69619,-1.11746 -0.19306,-0.21787 -0.73931,-1.98507 -1.21388,-3.92695 -2.30933,-9.44957 -8.46431,-15.98873 -17.28502,-18.36389 -3.33156,-0.8971 -9.15318,-0.7074 -12.75631,0.41569 -1.75443,0.54686 -5.65966,2.56874 -8.67826,4.49307 -3.35782,2.14059 -5.62063,3.28728 -5.82908,2.95394 -0.18738,-0.29965 -1.73221,-2.81964 -3.43294,-5.59997 -5.31823,-8.69423 -11.91541,-14.17606 -20.09944,-16.70138 -14.368638,-4.43369 -30.190879,1.58923 -37.972847,14.45485 -2.874801,4.7528 -3.993318,8.66809 -4.657334,16.3027 l -0.590832,6.7932 -2.611894,0.33809 c -10.928724,1.41468 -17.334186,4.81426 -21.870422,11.60732 -3.18745,4.77323 -4.39209,9.27118 -4.046703,15.1098 0.414396,7.00535 2.854488,12.16574 8.026156,16.97413 5.010488,4.65864 11.185386,6.73898 19.160598,6.45558 l 4.654264,-0.1656 0.468078,1.8038 c 0.257443,0.99215 0.849521,3.31118 1.315731,5.15373 2.354524,9.305 9.668449,16.7989 18.584786,19.0415 3.024486,0.7608 11.896581,0.2706 14.644409,-0.809 z"
       id="path6529"
       inkscape:connector-curvature="0" />
  </g>
</svg>
