<?xml version="1.0" encoding="UTF-8" standalone="no"?>
<!-- Created with Inkscape (http://www.inkscape.org/) -->

<svg
   xmlns:dc="http://purl.org/dc/elements/1.1/"
   xmlns:cc="http://creativecommons.org/ns#"
   xmlns:rdf="http://www.w3.org/1999/02/22-rdf-syntax-ns#"
   xmlns:svg="http://www.w3.org/2000/svg"
   xmlns="http://www.w3.org/2000/svg"
   xmlns:sodipodi="http://sodipodi.sourceforge.net/DTD/sodipodi-0.dtd"
   xmlns:inkscape="http://www.inkscape.org/namespaces/inkscape"
   width="114.32239"
   height="169.9485"
   viewBox="0 0 114.32239 169.9485"
   id="svg4168"
   version="1.1"
   inkscape:version="0.91 r13725"
   sodipodi:docname="gnm1.svg">
  <defs
     id="defs4170" />
  <sodipodi:namedview
     id="base"
     pagecolor="#ffffff"
     bordercolor="#666666"
     borderopacity="1.0"
     inkscape:pageopacity="0.0"
     inkscape:pageshadow="2"
     inkscape:zoom="2.8"
     inkscape:cx="118.13757"
     inkscape:cy="78.389481"
     inkscape:document-units="px"
     inkscape:current-layer="layer1"
     showgrid="false"
     units="px"
     inkscape:window-width="1440"
     inkscape:window-height="852"
     inkscape:window-x="0"
     inkscape:window-y="0"
     inkscape:window-maximized="1"
     fit-margin-top="0"
     fit-margin-left="0"
     fit-margin-right="0"
     fit-margin-bottom="0" />
  <metadata
     id="metadata4173">
    <rdf:RDF>
      <cc:Work
         rdf:about="">
        <dc:format>image/svg+xml</dc:format>
        <dc:type
           rdf:resource="http://purl.org/dc/dcmitype/StillImage" />
        <dc:title></dc:title>
      </cc:Work>
    </rdf:RDF>
  </metadata>
  <g
     inkscape:label="Layer 1"
     inkscape:groupmode="layer"
     id="layer1"
     transform="translate(-6.057437,-876.72769)">
    <path
       style="fill:#000000"
       d="m 28.515906,1045.6641 c -2.132922,-0.9307 -3.880416,-2.0146 -3.883319,-2.4087 -0.0029,-0.3942 2.582704,-4.9647 5.745797,-10.1567 8.369146,-13.7375 8.901184,-12.5345 -5.467382,-12.3621 -18.5589922,0.2227 -19.2711584,-0.6185 -18.7469242,-22.14377 0.3205378,-13.1608 0.4923393,-14.16545 2.851578,-16.67373 l 2.5105022,-2.6691 21.50496,0 c 16.066782,0 21.716814,-0.32724 22.342736,-1.29444 0.889149,-1.3738 0.657154,-32.88681 -0.248774,-33.79275 -1.387032,-1.38701 -7.216163,6.66412 -10.483256,14.4794 -5.064476,12.11485 -5.014673,11.74788 -1.793741,13.21543 2.608299,1.18844 2.696211,1.41691 1.142883,2.97024 -1.388999,1.38899 -2.149912,1.46993 -4.358627,0.46355 -3.414462,-1.55571 -7.955667,-1.55571 -11.370126,0 -2.215086,1.00928 -2.97019,0.92488 -4.385151,-0.49009 -1.588691,-1.58868 -1.38494,-1.85278 2.887774,-3.7428 l 4.59707,-2.03348 2.414931,-11.19749 c 2.10188,-9.74592 3.49636,-13.21105 10.757311,-26.73073 4.588312,-8.5433 8.467554,-15.6847 8.62054,-15.86979 0.152985,-0.18502 6.029361,0.65992 13.058621,1.87783 7.029256,1.21788 17.207448,2.92371 22.618206,3.79074 l 9.837741,1.57642 -0.310493,14.15862 -0.310493,14.15861 10.41572,8.69798 c 5.72865,4.78387 10.90902,9.29235 11.51195,10.01886 0.98035,1.18122 0.22876,3.18287 -2.83514,7.55052 -0.15261,0.21747 -4.72952,-2.34546 -10.17094,-5.69553 -12.005121,-7.39108 -15.041348,-9.01545 -15.672227,-8.38459 -0.265999,0.26614 -0.764248,2.21304 -1.10726,4.32685 -0.609422,3.75539 -0.380289,4.08746 10.024327,14.52761 l 10.64799,10.68438 -0.73639,8.12395 c -0.40501,4.4681 -1.7508,15.8129 -2.99064,25.2105 l -2.25424,17.0866 -5.177189,0 -5.177189,0 -0.279909,-21.4949 -0.27991,-21.49493 -8.791451,-5.85059 c -4.835301,-3.21784 -8.923017,-5.66109 -9.083814,-5.42943 -7.283274,10.49255 -13.149222,20.78155 -13.149222,23.06395 0,4.2048 -1.789937,6.8587 -5.738779,8.5086 -2.270882,0.9488 -6.334894,4.9776 -11.566605,11.4664 -13.411986,16.6346 -12.567041,15.9458 -17.121429,13.9586 z m 28.213506,-31.2053 c 1.837255,-1.8373 2.0711,-3.4519 2.0711,-14.2998 0,-8.17037 -0.429585,-12.80263 -1.29444,-13.95797 -1.132462,-1.51283 -4.001931,-1.74172 -22.93164,-1.82933 -16.923683,-0.0784 -21.826769,0.19882 -22.507395,1.27238 -0.478601,0.75492 -0.877323,7.52387 -0.886046,15.04212 -0.01381,11.9365 0.21391,13.8035 1.796358,14.7252 1.05492,0.6144 10.14248,1.0686 21.746586,1.087 18.576772,0.031 20.075423,-0.1094 22.005477,-2.0396 z m -26.924348,-6.1566 c 0,-4.1085 -0.07815,-4.199 -3.624431,-4.199 -3.605252,0 -3.624431,-0.024 -3.624431,-4.65994 0,-4.63534 0.01933,-4.65999 3.624431,-4.65999 3.462481,0 3.624431,-0.1643 3.624431,-3.68118 l 0,-3.68114 4.918871,0.3155 c 4.716424,0.30272 4.932229,0.45416 5.243371,3.68118 0.2971,3.08121 0.625173,3.36554 3.883319,3.36554 3.527493,0 3.558818,0.0411 3.558818,4.65998 0,4.61975 -0.03072,4.65995 -3.561918,4.65995 -3.368491,0 -3.579374,0.2109 -3.883319,3.8834 -0.318294,3.8458 -0.368818,3.8863 -5.240271,4.1989 l -4.918871,0.3155 0,-4.1989 z m 37.77595,-97.84342 c -6.134188,-3.67755 -9.125355,-9.6201 -8.587189,-17.06016 0.514269,-7.10968 3.36885,-11.65973 9.17261,-14.62058 12.20572,-6.22691 26.878387,2.48443 26.878387,15.95803 0,14.0738 -15.455496,22.9219 -27.463808,15.72271 z"
       id="path5358"
       inkscape:connector-curvature="0" />
  </g>
</svg>
