<?xml version="1.0" encoding="UTF-8" standalone="no"?>
<!-- Created with Inkscape (http://www.inkscape.org/) -->

<svg
   xmlns:dc="http://purl.org/dc/elements/1.1/"
   xmlns:cc="http://creativecommons.org/ns#"
   xmlns:rdf="http://www.w3.org/1999/02/22-rdf-syntax-ns#"
   xmlns:svg="http://www.w3.org/2000/svg"
   xmlns="http://www.w3.org/2000/svg"
   xmlns:sodipodi="http://sodipodi.sourceforge.net/DTD/sodipodi-0.dtd"
   xmlns:inkscape="http://www.inkscape.org/namespaces/inkscape"
   width="45.216019"
   height="168.08572"
   viewBox="0 0 45.21602 168.08572"
   id="svg4168"
   version="1.1"
   inkscape:version="0.91 r13725"
   sodipodi:docname="gnm2.svg">
  <defs
     id="defs4170" />
  <sodipodi:namedview
     id="base"
     pagecolor="#ffffff"
     bordercolor="#666666"
     borderopacity="1.0"
     inkscape:pageopacity="0.0"
     inkscape:pageshadow="2"
     inkscape:zoom="2.8"
     inkscape:cx="117.0233"
     inkscape:cy="77.518089"
     inkscape:document-units="px"
     inkscape:current-layer="layer1"
     showgrid="false"
     units="px"
     inkscape:window-width="1440"
     inkscape:window-height="852"
     inkscape:window-x="0"
     inkscape:window-y="0"
     inkscape:window-maximized="1"
     fit-margin-top="0"
     fit-margin-left="0"
     fit-margin-right="0"
     fit-margin-bottom="0" />
  <metadata
     id="metadata4173">
    <rdf:RDF>
      <cc:Work
         rdf:about="">
        <dc:format>image/svg+xml</dc:format>
        <dc:type
           rdf:resource="http://purl.org/dc/dcmitype/StillImage" />
        <dc:title></dc:title>
      </cc:Work>
    </rdf:RDF>
  </metadata>
  <g
     inkscape:label="Layer 1"
     inkscape:groupmode="layer"
     id="layer1"
     transform="translate(-7.1717156,-877.71907)">
    <path
       style="fill:#000000"
       d="m 16.018324,1044.892 c 0,-1.0785 2.402685,-3.5988 4.606871,-4.8323 1.422162,-0.7959 1.405019,-2.0869 -0.192823,-14.5203 -2.355578,-18.3295 -2.236083,-18.07 -8.321541,-18.07 l -4.9391154,0 0,-5.1085 c 0,-9.74905 2.1990875,-27.86871 4.4824044,-36.93341 l 2.295447,-9.11283 -2.896672,-6.123 c -2.7632691,-5.84102 -2.8967055,-6.73679 -2.897446,-19.45078 -8.65e-4,-14.88603 0.3697392,-15.94052 6.142704,-17.47809 2.997027,-0.79823 3.686089,-0.71936 3.686089,0.42198 0,0.77205 2.432819,4.05005 5.406263,7.2844 5.261706,5.72343 5.405427,6.03202 5.375002,11.54119 -0.01835,3.3413 -0.60696,6.42101 -1.436349,7.51651 -1.868313,2.46784 -0.25996,5.51622 2.910391,5.51622 2.65801,0 4.362896,-3.43412 2.58669,-5.21032 -0.594329,-0.59433 -1.080601,-3.94356 -1.080601,-7.44272 0,-6.22579 0.105308,-6.48316 4.914785,-12.01275 2.703131,-3.10785 4.914784,-6.3575 4.914784,-7.22143 0,-1.81729 3.866333,-1.27745 7.617916,1.06369 2.127403,1.32759 2.211653,1.91975 2.211653,15.54557 0,13.08872 -0.194265,14.61335 -2.555649,20.05828 l -2.555652,5.89283 2.01885,8.67056 c 2.640104,11.33873 4.075408,23.27947 4.075408,33.90454 l 0,8.57526 -5.160524,0.2972 -5.160523,0.2972 -2.167774,15.2358 -2.167777,15.2358 2.913854,2.4574 c 5.255595,4.4323 4.18894,4.9148 -10.865264,4.9148 -7.813246,0 -13.761398,-0.3945 -13.761398,-0.9127 z m 30.056774,-60.61221 c -0.968769,-11.93959 -1.574926,-13.17982 -6.441476,-13.17982 -4.163517,0 -4.933084,-0.91441 -2.481724,-2.94887 1.844427,-1.53072 1.854633,-2.42826 0.04816,-4.23474 -2.144914,-2.14491 -13.243493,-1.73266 -14.679134,0.54525 -0.801123,1.27112 -0.764901,2.22453 0.139547,3.67275 1.760636,2.81925 1.62873,2.96561 -2.672417,2.96561 -3.676709,0 -3.94655,0.20577 -4.836981,3.68609 -0.518674,2.02735 -1.244112,6.89299 -1.612082,10.81253 l -0.669047,7.12643 16.945208,0 16.945203,0 -0.685242,-8.44523 z m -18.26129,1.56453 c 0,-1.3106 -0.655305,-1.96591 -1.965914,-1.96591 -1.310609,0 -1.965914,-0.6553 -1.965914,-1.96591 0,-1.31061 0.655305,-1.96592 1.965914,-1.96592 1.44167,0 1.965914,-0.6553 1.965914,-2.45739 0,-1.80209 0.524243,-2.45739 1.965913,-2.45739 1.441671,0 1.965914,0.6553 1.965914,2.45739 0,1.98459 0.486675,2.45739 2.529469,2.45739 3.226396,0 2.939244,3.28832 -0.327858,3.75444 -1.411392,0.20151 -2.201611,0.99521 -2.201611,2.21169 0,1.24222 -0.678915,1.89753 -1.965914,1.89753 -1.310609,0 -1.965913,-0.65531 -1.965913,-1.96592 z m -1.965914,-15.49087 c 0,-0.41058 0.884661,-1.29898 1.965914,-1.97424 1.571908,-0.98168 2.359919,-0.98168 3.931827,0 2.989942,1.86726 2.373232,2.72076 -1.965914,2.72076 -2.162505,0 -3.931827,-0.33594 -3.931827,-0.74652 z M 25.069599,918.7203 c -4.421481,-4.50516 -5.049954,-6.58188 -2.605744,-8.61038 1.288483,-1.06936 1.937195,-0.86395 4.098917,1.29777 2.039908,2.0399 2.330909,2.85405 1.414705,3.95801 -0.951322,1.14629 -0.651324,1.37148 1.711816,1.28501 1.931281,-0.0708 2.579088,-0.45104 1.987312,-1.16686 -0.558368,-0.67543 0.118217,-2.01644 1.858598,-3.68383 2.125517,-2.03636 2.99945,-2.3589 3.913853,-1.44452 0.647503,0.64751 1.177277,1.84616 1.177277,2.66365 0,1.3957 -7.601441,9.91594 -8.846612,9.91594 -0.315496,0 -2.435056,-1.89665 -4.710122,-4.21479 z m -0.888338,-13.43509 c -4.017004,-2.44933 -5.985653,-8.21123 -4.379607,-12.81831 0.860278,-2.46782 0.787323,-3.71545 -0.345335,-5.90577 l -1.436038,-2.77699 5.373353,-3.03255 c 2.955342,-1.66788 5.837086,-3.03252 6.403876,-3.03252 0.907511,0 10.677169,4.60076 11.664264,5.49299 0.207928,0.18807 -0.157765,1.63528 -0.81264,3.21627 -0.810271,1.95618 -0.905336,3.92904 -0.297541,6.175 1.230108,4.54568 -0.174639,9.03727 -3.773562,12.06557 -3.647402,3.06908 -8.017753,3.28635 -12.396757,0.61631 z m 7.304592,-20.81883 c 0.833174,-0.83319 0.776182,-1.45654 -0.224671,-2.45739 -1.718425,-1.71844 -2.121297,-1.68708 -2.853917,0.22215 -1.096692,2.85794 0.961528,4.35237 3.078591,2.23531 z"
       id="path5470"
       inkscape:connector-curvature="0" />
  </g>
</svg>
