<?xml version="1.0" encoding="UTF-8" standalone="no"?>
<!-- Created with Inkscape (http://www.inkscape.org/) -->

<svg
   xmlns:dc="http://purl.org/dc/elements/1.1/"
   xmlns:cc="http://creativecommons.org/ns#"
   xmlns:rdf="http://www.w3.org/1999/02/22-rdf-syntax-ns#"
   xmlns:svg="http://www.w3.org/2000/svg"
   xmlns="http://www.w3.org/2000/svg"
   xmlns:sodipodi="http://sodipodi.sourceforge.net/DTD/sodipodi-0.dtd"
   xmlns:inkscape="http://www.inkscape.org/namespaces/inkscape"
   width="165.9639"
   height="166.14037"
   viewBox="0 0 165.9639 166.14036"
   id="svg4168"
   version="1.1"
   inkscape:version="0.91 r13725"
   sodipodi:docname="gnm3.svg">
  <defs
     id="defs4170" />
  <sodipodi:namedview
     id="base"
     pagecolor="#ffffff"
     bordercolor="#666666"
     borderopacity="1.0"
     inkscape:pageopacity="0.0"
     inkscape:pageshadow="2"
     inkscape:zoom="2.8"
     inkscape:cx="115.87733"
     inkscape:cy="76.353895"
     inkscape:document-units="px"
     inkscape:current-layer="layer1"
     showgrid="false"
     units="px"
     inkscape:window-width="1440"
     inkscape:window-height="852"
     inkscape:window-x="0"
     inkscape:window-y="0"
     inkscape:window-maximized="1"
     fit-margin-top="0"
     fit-margin-left="0"
     fit-margin-right="0"
     fit-margin-bottom="0" />
  <metadata
     id="metadata4173">
    <rdf:RDF>
      <cc:Work
         rdf:about="">
        <dc:format>image/svg+xml</dc:format>
        <dc:type
           rdf:resource="http://purl.org/dc/dcmitype/StillImage" />
        <dc:title></dc:title>
      </cc:Work>
    </rdf:RDF>
  </metadata>
  <g
     inkscape:label="Layer 1"
     inkscape:groupmode="layer"
     id="layer1"
     transform="translate(-8.3176798,-878.50024)">
    <path
       style="fill:#000000"
       d="m 8.9432071,1039.3184 c 1.2095269,-10.2912 8.1336739,-29.2347 12.3817959,-33.8749 1.973495,-2.1557 45.297759,-19.97718 47.102323,-19.37566 0.536647,0.17888 5.632839,6.7912 11.324875,14.69406 5.692033,7.9028 10.7586,14.4972 11.25903,14.6541 0.500434,0.1571 5.67894,-6.4203 11.507789,-14.6161 9.55786,-13.43905 10.82861,-14.84925 12.94861,-14.36949 3.06723,0.69413 31.45043,11.84057 39.73928,15.60619 5.66552,2.5738 6.72553,3.4892 8.79004,7.5911 3.95347,7.855 10.24157,28.2314 10.2846,33.3269 0.0128,1.5928 -4.57448,1.686 -82.974814,1.686 l -82.9890562,0 0.6255273,-5.3222 z m 157.6450329,-2.8555 c 0,-2.1724 -5.76524,-19.766 -7.77627,-23.7307 -1.67983,-3.3117 -2.7667,-3.8837 -21.64646,-11.392 -10.93278,-4.34784 -20.42844,-7.69389 -21.10144,-7.43563 -0.673,0.25821 -6.53397,7.87313 -13.02438,16.92203 l -11.800745,16.4525 -12.183723,-16.8288 c -6.701051,-9.2559 -12.641778,-16.83868 -13.201624,-16.85062 -1.193537,-0.0257 -17.096929,6.05863 -30.640605,11.72202 -7.314863,3.0588 -9.90841,4.6451 -11.278627,6.8982 -1.639924,2.6966 -8.607261,22.7641 -8.607261,24.7908 0,0.5312 30.273936,0.8858 75.630558,0.8858 66.314747,0 75.630577,-0.1766 75.630577,-1.4336 z M 80.201473,986.42527 c -2.736529,-1.27412 -6.682434,-4.02354 -8.768678,-6.10976 -3.262828,-3.26284 -5.03125,-4.09908 -12.648365,-5.9812 -5.570388,-1.37641 -8.682632,-2.59103 -8.389998,-3.27444 3.265214,-7.62519 3.724813,-11.90187 3.067797,-28.5466 -0.42989,-10.89073 -0.291121,-19.25894 0.390039,-23.5229 0.947697,-5.93236 0.793661,-7.85508 -1.485863,-18.54702 -1.398742,-6.56069 -2.324858,-12.49741 -2.058038,-13.19276 0.483994,-1.26125 13.316226,-5.20149 24.270704,-7.45246 13.525907,-2.77941 33.152819,-1.01926 50.801009,4.55579 6.75434,2.13368 7.45384,2.58152 7.01861,4.49345 -4.13045,18.14379 -5.02899,24.14802 -4.17956,27.92868 0.49846,2.21837 0.77275,13.57788 0.60961,25.24339 -0.27876,19.92671 -0.1731,21.47719 1.74634,25.62678 l 2.04299,4.4168 -8.88718,2.14251 c -7.76352,1.87159 -9.35876,2.62542 -12.61698,5.96216 -8.4455,8.64899 -20.524726,11.09415 -30.912437,6.25758 z m 19.730098,-5.94517 c 11.225369,-5.59383 19.380179,-22.58299 19.431049,-40.48123 l 0.0161,-5.88849 -6.31453,-0.64695 c -8.27074,-0.84735 -19.285178,-4.39753 -28.830127,-9.29248 -4.227526,-2.16804 -7.831083,-3.50788 -8.007898,-2.9774 -0.989078,2.96722 -6.466002,9.00729 -9.903062,10.92131 l -3.970579,2.21114 0.577965,7.70757 c 1.775732,23.68056 13.673173,40.72033 28.559965,40.90419 1.883066,0.0225 5.681287,-1.08269 8.440489,-2.45766 z M 120.3428,912.27277 c 0,-0.2065 0.87689,-4.63745 1.94867,-9.84633 1.07177,-5.20887 1.75302,-9.98044 1.51396,-10.60347 -0.53016,-1.38158 -18.92168,-5.8512 -27.54881,-6.69511 -3.444322,-0.33695 -9.730811,-0.12622 -13.969976,0.4683 -7.6806,1.07713 -21.189435,4.36389 -23.301974,5.66953 -0.822055,0.50805 -0.627596,3.06877 0.746523,9.83059 1.021973,5.02896 2.057527,9.68549 2.301228,10.34786 0.341018,0.92687 7.108434,1.20431 29.376726,1.20431 15.913503,0 28.933653,-0.16892 28.933653,-0.37568 z m -32.7572,-6.36844 c 0,-3.76204 -0.08029,-3.85379 -3.372063,-3.85379 -3.10444,0 -3.372063,-0.2293 -3.372063,-2.89034 0,-2.66094 0.267613,-2.89034 3.372063,-2.89034 3.211489,0 3.372063,-0.16058 3.372063,-3.37206 0,-3.19964 0.169278,-3.37207 3.311019,-3.37207 3.031286,0 3.336529,0.26463 3.612925,3.1312 0.265462,2.75328 0.67984,3.16766 3.433107,3.43312 2.736079,0.26366 3.131199,0.65122 3.131199,3.07015 0,2.41892 -0.39512,2.80636 -3.131199,3.07015 -2.858645,0.27555 -3.15723,0.61641 -3.430223,3.91484 -0.282771,3.41673 -0.47898,3.61292 -3.612925,3.61292 -3.223923,0 -3.313903,-0.10469 -3.313903,-3.85378 z"
       id="path5543"
       inkscape:connector-curvature="0" />
  </g>
</svg>
