<?xml version="1.0" encoding="UTF-8" standalone="no"?>
<!-- Created with Inkscape (http://www.inkscape.org/) -->

<svg
   xmlns:dc="http://purl.org/dc/elements/1.1/"
   xmlns:cc="http://creativecommons.org/ns#"
   xmlns:rdf="http://www.w3.org/1999/02/22-rdf-syntax-ns#"
   xmlns:svg="http://www.w3.org/2000/svg"
   xmlns="http://www.w3.org/2000/svg"
   xmlns:sodipodi="http://sodipodi.sourceforge.net/DTD/sodipodi-0.dtd"
   xmlns:inkscape="http://www.inkscape.org/namespaces/inkscape"
   width="152.42149"
   height="142.92343"
   viewBox="0 0 152.42149 142.92342"
   id="svg4168"
   version="1.1"
   inkscape:version="0.91 r13725"
   sodipodi:docname="laptop.svg">
  <defs
     id="defs4170" />
  <sodipodi:namedview
     id="base"
     pagecolor="#ffffff"
     bordercolor="#666666"
     borderopacity="1.0"
     inkscape:pageopacity="0.0"
     inkscape:pageshadow="2"
     inkscape:zoom="2.8"
     inkscape:cx="50.895393"
     inkscape:cy="65.269561"
     inkscape:document-units="px"
     inkscape:current-layer="layer1"
     showgrid="false"
     units="px"
     inkscape:window-width="1440"
     inkscape:window-height="852"
     inkscape:window-x="0"
     inkscape:window-y="0"
     inkscape:window-maximized="1"
     fit-margin-top="0"
     fit-margin-left="0"
     fit-margin-right="0"
     fit-margin-bottom="0" />
  <metadata
     id="metadata4173">
    <rdf:RDF>
      <cc:Work
         rdf:about="">
        <dc:format>image/svg+xml</dc:format>
        <dc:type
           rdf:resource="http://purl.org/dc/dcmitype/StillImage" />
        <dc:title></dc:title>
      </cc:Work>
    </rdf:RDF>
  </metadata>
  <g
     inkscape:label="Layer 1"
     inkscape:groupmode="layer"
     id="layer1"
     transform="translate(-21.513909,-890.63285)">
    <path
       style="fill:#14c269;fill-opacity:0"
       d="m 82.128216,1038.2584 c -4.336446,-0.5434 -13.87688,-2.7859 -17.710849,-4.1629 -9.876385,-3.5471 -19.515452,-9.5012 -27.279691,-16.8507 -2.76674,-2.619 -5.030441,-5.0278 -5.030441,-5.353 0,-0.3252 1.588631,0.8795 3.530297,2.6771 17.018932,15.7566 38.609816,23.3727 60.207426,21.2381 33.178842,-3.2792 58.963052,-26.0915 65.692932,-58.12091 1.42325,-6.77365 1.44647,-20.36184 0.0461,-26.97034 -4.75223,-22.42603 -18.67823,-40.78914 -38.6841,-51.00962 -12.18782,-6.22643 -21.86438,-8.58986 -35.148033,-8.58466 -13.335582,0.005 -22.097671,1.97097 -33.476628,7.51036 -14.842403,7.22543 -26.011934,18.16788 -33.755712,33.06944 -1.830359,3.52221 -3.47292,6.25902 -3.650136,6.08181 -0.515931,-0.51593 2.119949,-7.2995 5.077351,-13.06681 6.754463,-13.17207 18.35437,-24.55081 32.229633,-31.61513 10.010631,-5.09673 20.194382,-7.69053 32.157613,-8.19055 37.951032,-1.5862 71.598712,24.62471 79.633042,62.03265 1.76999,8.24113 1.9245,22.6529 0.32324,30.15089 -3.32609,15.57461 -9.9757,27.99237 -20.78622,38.81717 -11.9945,12.0102 -26.49013,19.2959 -43.54504,21.886 -5.120111,0.7776 -15.398394,1.0166 -19.830804,0.4611 z m -14.799107,-22.0263 c 7.934672,-4.9645 15.077301,-20.41276 15.30349,-33.09873 l 0.08758,-4.91209 -9.76741,-3.99768 c -12.004685,-4.91336 -16.62972,-7.32175 -25.78543,-13.42723 -8.015759,-5.34529 -20.010547,-14.46698 -19.584268,-14.89326 0.350378,-0.35037 0.459128,-0.29315 15.574444,8.1954 13.433422,7.54402 19.434163,10.38381 32.880821,15.56052 10.520253,4.0501 13.256632,4.22474 23.436743,1.49576 14.309641,-3.83598 22.485661,-8.18216 30.586991,-16.25932 2.93899,-2.93023 6.65581,-7.25897 8.2596,-9.61942 5.22334,-7.68775 4.58724,-4.58504 -1.04367,5.09072 -7.7665,13.34538 -20.93961,22.17619 -40.350681,27.04975 -3.58138,0.89918 -6.797249,1.92705 -7.146372,2.28414 -0.349117,0.3571 -0.970573,2.38077 -1.381011,4.49704 -2.510219,12.94315 -11.63755,27.9287 -19.419341,31.8834 -3.074325,1.5624 -4.049764,1.6515 -1.651486,0.151 z m 15.983036,-49.11882 c -4.113217,-2.54071 -5.623661,-5.87991 -5.623661,-12.43243 0,-4.63685 1.398386,-10.66882 3.354999,-14.47186 2.295549,-4.46183 7.811052,-8.71036 11.272533,-8.68311 2.056218,0.0162 6.054383,1.81281 7.395483,3.32324 0.554561,0.62458 1.716741,2.68309 2.582651,4.57445 1.43901,3.14324 1.55284,3.93063 1.32404,9.1594 -0.29335,6.70381 -1.91516,10.8192 -5.869411,14.89379 -4.335835,4.46778 -10.554799,6.0343 -14.436634,3.63652 z m 7.90013,-3.76374 c 6.708664,-4.13615 10.223355,-17.32826 6.535394,-24.53011 -2.880743,-5.62552 -7.554745,-6.3487 -12.55956,-1.94329 -4.122628,3.62888 -5.892537,7.85831 -6.196877,14.80827 -0.211107,4.82071 -0.07092,6.01582 0.937417,7.99152 2.758601,5.40512 6.499673,6.62311 11.283626,3.67361 z"
       id="path5689"
       inkscape:connector-curvature="0" />
    <path
       style="fill:#000000"
       d="m 28.546218,1033.3153 c -3.029779,-0.9283 -5.767993,-3.5196 -6.578735,-6.2257 -0.249466,-0.8326 -0.453574,-2.9444 -0.453574,-4.6928 l 0,-3.179 76.21075,0 76.210751,0 0,3.179 c 0,1.7484 -0.20411,3.8602 -0.45358,4.6928 -0.58733,1.9604 -2.71912,4.4322 -4.76684,5.5274 l -1.61901,0.8659 -68.785084,0.066 c -37.831798,0.037 -69.225904,-0.069 -69.764678,-0.234 z m 114.909632,-3.1577 c 2.84913,-2.0288 2.26538,-6.4415 -1.06092,-8.02 -2.88991,-1.3713 -6.36948,0.971 -6.36948,4.2877 0,3.9326 4.19195,6.0381 7.4304,3.7323 z m 18.34319,0.4047 c 1.13283,-0.5779 1.6737,-1.1962 2.15959,-2.4684 0.60692,-1.5892 0.60528,-1.8047 -0.0259,-3.3821 -0.54424,-1.3602 -1.00903,-1.8329 -2.41279,-2.4539 -1.66388,-0.736 -1.81301,-0.7407 -3.46579,-0.1095 -1.3031,0.4976 -1.91638,1.0306 -2.49814,2.1709 -0.95406,1.8701 -0.96334,2.564 -0.0569,4.2542 0.72666,1.3549 2.80512,2.7598 4.08293,2.7598 0.38809,0 1.38572,-0.347 2.21697,-0.771 z M 22.062577,1015.2119 c 0.281205,-0.9136 2.407766,-7.3329 4.725692,-14.2651 l 4.21441,-12.60412 66.72198,0 66.721981,0 4.2144,12.60412 c 2.31793,6.9322 4.44449,13.3515 4.72569,14.2651 l 0.51129,1.661 -76.173361,0 -76.173362,0 0.51128,-1.661 z m 137.941023,-9.9661 c -1.16372,-3.8154 -2.46968,-8.12423 -2.90213,-9.57516 l -0.78626,-2.63807 -58.590551,0 -58.590555,0 -0.786267,2.63807 c -0.432447,1.45093 -1.738402,5.75976 -2.902125,9.57516 l -2.115856,6.9372 64.394803,0 64.394801,0 -2.11586,-6.9372 z M 37.392124,985.42394 c -2.207326,-0.78682 -4.208821,-2.56619 -5.324206,-4.73335 l -0.978812,-1.90181 -0.105002,-39.65193 c -0.118641,-44.80811 -0.260738,-42.48814 2.789047,-45.53793 3.19478,-3.19478 -1.823367,-2.96233 63.951502,-2.96233 65.774877,0 60.756727,-0.23245 63.951497,2.96233 3.0498,3.04979 2.90771,0.72982 2.78905,45.53793 l -0.105,39.65193 -0.9984,1.93987 c -1.12376,2.18344 -3.57712,4.25608 -5.75319,4.86044 -0.97417,0.27054 -20.8485,0.39933 -60.079383,0.38931 -48.832399,-0.013 -58.876431,-0.10513 -60.137122,-0.55446 z m 117.392896,-46.91136 0,-38.10538 -57.060361,0 -57.060356,0 0,38.10538 0,38.10537 57.060356,0 57.060361,0 0,-38.10537 z"
       id="path6602"
       inkscape:connector-curvature="0" />
  </g>
</svg>
