<?xml version="1.0" encoding="UTF-8" standalone="no"?>
<!-- Created with Inkscape (http://www.inkscape.org/) -->

<svg
   xmlns:dc="http://purl.org/dc/elements/1.1/"
   xmlns:cc="http://creativecommons.org/ns#"
   xmlns:rdf="http://www.w3.org/1999/02/22-rdf-syntax-ns#"
   xmlns:svg="http://www.w3.org/2000/svg"
   xmlns="http://www.w3.org/2000/svg"
   xmlns:sodipodi="http://sodipodi.sourceforge.net/DTD/sodipodi-0.dtd"
   xmlns:inkscape="http://www.inkscape.org/namespaces/inkscape"
   width="93.241219"
   height="150.90681"
   viewBox="0 0 93.241217 150.9068"
   id="svg4168"
   version="1.1"
   inkscape:version="0.91 r13725"
   sodipodi:docname="mother.svg">
  <defs
     id="defs4170" />
  <sodipodi:namedview
     id="base"
     pagecolor="#ffffff"
     bordercolor="#666666"
     borderopacity="1.0"
     inkscape:pageopacity="0.0"
     inkscape:pageshadow="2"
     inkscape:zoom="2.8"
     inkscape:cx="54.940426"
     inkscape:cy="68.675003"
     inkscape:document-units="px"
     inkscape:current-layer="layer1"
     showgrid="false"
     units="px"
     inkscape:window-width="1440"
     inkscape:window-height="852"
     inkscape:window-x="0"
     inkscape:window-y="0"
     inkscape:window-maximized="1"
     fit-margin-top="0"
     fit-margin-left="0"
     fit-margin-right="0"
     fit-margin-bottom="0" />
  <metadata
     id="metadata4173">
    <rdf:RDF>
      <cc:Work
         rdf:about="">
        <dc:format>image/svg+xml</dc:format>
        <dc:type
           rdf:resource="http://purl.org/dc/dcmitype/StillImage" />
        <dc:title></dc:title>
      </cc:Work>
    </rdf:RDF>
  </metadata>
  <g
     inkscape:label="Layer 1"
     inkscape:groupmode="layer"
     id="layer1"
     transform="translate(-17.468876,-886.0549)">
    <path
       style="fill:#14c269;fill-opacity:0"
       d="m 82.128216,1038.2584 c -4.336446,-0.5434 -13.87688,-2.7859 -17.710849,-4.1629 -9.876385,-3.5471 -19.515452,-9.5012 -27.279691,-16.8507 -2.76674,-2.619 -5.030441,-5.0278 -5.030441,-5.353 0,-0.3252 1.588631,0.8795 3.530297,2.6771 17.018932,15.7566 38.609816,23.3727 60.207426,21.2381 33.178842,-3.2792 58.963052,-26.0915 65.692932,-58.12091 1.42325,-6.77365 1.44647,-20.36184 0.0461,-26.97034 -4.75223,-22.42603 -18.67823,-40.78914 -38.6841,-51.00962 -12.18782,-6.22643 -21.86438,-8.58986 -35.148033,-8.58466 -13.335582,0.005 -22.097671,1.97097 -33.476628,7.51036 -14.842403,7.22543 -26.011934,18.16788 -33.755712,33.06944 -1.830359,3.52221 -3.47292,6.25902 -3.650136,6.08181 -0.515931,-0.51593 2.119949,-7.2995 5.077351,-13.06681 6.754463,-13.17207 18.35437,-24.55081 32.229633,-31.61513 10.010631,-5.09673 20.194382,-7.69053 32.157613,-8.19055 37.951032,-1.5862 71.598712,24.62471 79.633042,62.03265 1.76999,8.24113 1.9245,22.6529 0.32324,30.15089 -3.32609,15.57461 -9.9757,27.99237 -20.78622,38.81717 -11.9945,12.0102 -26.49013,19.2959 -43.54504,21.886 -5.120111,0.7776 -15.398394,1.0166 -19.830804,0.4611 z m -14.799107,-22.0263 c 7.934672,-4.9645 15.077301,-20.41276 15.30349,-33.09873 l 0.08758,-4.91209 -9.76741,-3.99768 c -12.004685,-4.91336 -16.62972,-7.32175 -25.78543,-13.42723 -8.015759,-5.34529 -20.010547,-14.46698 -19.584268,-14.89326 0.350378,-0.35037 0.459128,-0.29315 15.574444,8.1954 13.433422,7.54402 19.434163,10.38381 32.880821,15.56052 10.520253,4.0501 13.256632,4.22474 23.436743,1.49576 14.309641,-3.83598 22.485661,-8.18216 30.586991,-16.25932 2.93899,-2.93023 6.65581,-7.25897 8.2596,-9.61942 5.22334,-7.68775 4.58724,-4.58504 -1.04367,5.09072 -7.7665,13.34538 -20.93961,22.17619 -40.350681,27.04975 -3.58138,0.89918 -6.797249,1.92705 -7.146372,2.28414 -0.349117,0.3571 -0.970573,2.38077 -1.381011,4.49704 -2.510219,12.94315 -11.63755,27.9287 -19.419341,31.8834 -3.074325,1.5624 -4.049764,1.6515 -1.651486,0.151 z m 15.983036,-49.11882 c -4.113217,-2.54071 -5.623661,-5.87991 -5.623661,-12.43243 0,-4.63685 1.398386,-10.66882 3.354999,-14.47186 2.295549,-4.46183 7.811052,-8.71036 11.272533,-8.68311 2.056218,0.0162 6.054383,1.81281 7.395483,3.32324 0.554561,0.62458 1.716741,2.68309 2.582651,4.57445 1.43901,3.14324 1.55284,3.93063 1.32404,9.1594 -0.29335,6.70381 -1.91516,10.8192 -5.869411,14.89379 -4.335835,4.46778 -10.554799,6.0343 -14.436634,3.63652 z m 7.90013,-3.76374 c 6.708664,-4.13615 10.223355,-17.32826 6.535394,-24.53011 -2.880743,-5.62552 -7.554745,-6.3487 -12.55956,-1.94329 -4.122628,3.62888 -5.892537,7.85831 -6.196877,14.80827 -0.211107,4.82071 -0.07092,6.01582 0.937417,7.99152 2.758601,5.40512 6.499673,6.62311 11.283626,3.67361 z"
       id="path5689"
       inkscape:connector-curvature="0" />
    <path
       style="fill:#000000"
       d="m 24.436483,1036.4722 c 0,-0.4209 10.180226,-31.934 11.040069,-34.1747 0.204167,-0.532 -1.283928,-1.7276 -4.355216,-3.49913 -6.645242,-3.83299 -11.077829,-7.62268 -12.604535,-10.77644 -1.077159,-2.22512 -1.225313,-3.24542 -0.88606,-6.10201 1.153947,-9.71656 7.665711,-34.93277 10.10737,-39.13986 1.771742,-3.05278 5.260104,-5.87055 9.330222,-7.53656 2.932618,-1.20042 4.241636,-1.2786 24.358024,-1.45489 23.170244,-0.20304 25.394827,0.006 31.234438,2.92326 5.715305,2.85598 8.339315,6.28059 10.699825,13.96441 5.40035,17.57897 8.22118,31.85394 7.11,35.98052 -0.81564,3.02906 -5.10366,7.28179 -10.686366,10.59843 -2.273914,1.35091 -4.247592,2.63932 -4.385926,2.86317 -0.190157,0.3078 5.805122,20.3536 10.708492,35.8044 0.31181,0.9825 -1.89287,1.0389 -40.67032,1.0389 -22.550026,0 -41.000017,-0.2203 -41.000017,-0.4895 z m 51.584023,-47.91306 c 2.088525,-0.49231 5.627964,-1.85709 7.865389,-3.03282 4.452669,-2.33981 9.765973,-6.66061 9.00198,-7.32046 -0.883984,-0.76348 -10.489956,-4.63521 -17.696601,-7.1327 -7.669356,-2.65783 -10.234837,-2.83653 -13.970271,-0.97305 -1.074418,0.53598 -1.995504,0.90658 -2.046872,0.82353 -0.05125,-0.0831 -0.424005,-1.3016 -0.828104,-2.70789 -0.963194,-3.35215 -4.585859,-6.96868 -7.865014,-7.85166 -9.666581,-2.60293 -17.799556,7.23047 -13.610831,16.45659 2.107184,4.6413 8.631559,7.76516 13.02164,6.23478 1.619919,-0.56471 1.801706,-0.47921 2.484254,1.16863 0.894966,2.16063 2.744696,3.43908 6.400684,4.42384 3.824813,1.03023 12.690141,0.98458 17.243746,-0.0888 z M 61.0835,927.71905 c -5.879838,-1.48085 -11.012582,-5.78765 -13.820677,-11.59667 -1.479467,-3.06058 -1.707082,-4.22842 -1.728294,-8.8674 -0.02117,-4.64046 0.195895,-5.81933 1.651915,-8.96989 6.088556,-13.17442 22.374748,-16.35151 32.561541,-6.35206 10.611154,10.41605 7.311084,28.6384 -6.274796,34.64808 -3.145589,1.39144 -9.181808,1.94584 -12.389689,1.13794 z"
       id="path6456"
       inkscape:connector-curvature="0" />
  </g>
</svg>
