<?xml version="1.0" encoding="UTF-8" standalone="no"?>
<!-- Created with Inkscape (http://www.inkscape.org/) -->

<svg
   xmlns:dc="http://purl.org/dc/elements/1.1/"
   xmlns:cc="http://creativecommons.org/ns#"
   xmlns:rdf="http://www.w3.org/1999/02/22-rdf-syntax-ns#"
   xmlns:svg="http://www.w3.org/2000/svg"
   xmlns="http://www.w3.org/2000/svg"
   xmlns:sodipodi="http://sodipodi.sourceforge.net/DTD/sodipodi-0.dtd"
   xmlns:inkscape="http://www.inkscape.org/namespaces/inkscape"
   width="156.90102"
   height="156.94197"
   viewBox="0 0 156.90101 156.94196"
   id="svg4168"
   version="1.1"
   inkscape:version="0.91 r13725"
   sodipodi:docname="phone-call2.svg">
  <defs
     id="defs4170" />
  <sodipodi:namedview
     id="base"
     pagecolor="#ffffff"
     bordercolor="#666666"
     borderopacity="1.0"
     inkscape:pageopacity="0.0"
     inkscape:pageshadow="2"
     inkscape:zoom="2.8"
     inkscape:cx="52.813906"
     inkscape:cy="83.422449"
     inkscape:document-units="px"
     inkscape:current-layer="layer1"
     showgrid="false"
     units="px"
     inkscape:window-width="1440"
     inkscape:window-height="852"
     inkscape:window-x="0"
     inkscape:window-y="0"
     inkscape:window-maximized="1"
     fit-margin-top="0"
     fit-margin-left="0"
     fit-margin-right="0"
     fit-margin-bottom="0" />
  <metadata
     id="metadata4173">
    <rdf:RDF>
      <cc:Work
         rdf:about="">
        <dc:format>image/svg+xml</dc:format>
        <dc:type
           rdf:resource="http://purl.org/dc/dcmitype/StillImage" />
        <dc:title></dc:title>
      </cc:Work>
    </rdf:RDF>
  </metadata>
  <g
     inkscape:label="Layer 1"
     inkscape:groupmode="layer"
     id="layer1"
     transform="translate(-26.71435,-894.76721)">
    <path
       style="fill:#14c269;fill-opacity:0"
       d="m 82.128216,1038.2584 c -4.336446,-0.5434 -13.87688,-2.7859 -17.710849,-4.1629 -9.876385,-3.5471 -19.515452,-9.5012 -27.279691,-16.8507 -2.76674,-2.619 -5.030441,-5.0278 -5.030441,-5.353 0,-0.3252 1.588631,0.8795 3.530297,2.6771 17.018932,15.7566 38.609816,23.3727 60.207426,21.2381 33.178842,-3.2792 58.963052,-26.0915 65.692932,-58.12091 1.42325,-6.77365 1.44647,-20.36184 0.0461,-26.97034 -4.75223,-22.42603 -18.67823,-40.78914 -38.6841,-51.00962 -12.18782,-6.22643 -21.86438,-8.58986 -35.148033,-8.58466 -13.335582,0.005 -22.097671,1.97097 -33.476628,7.51036 -14.842403,7.22543 -26.011934,18.16788 -33.755712,33.06944 -1.830359,3.52221 -3.47292,6.25902 -3.650136,6.08181 -0.515931,-0.51593 2.119949,-7.2995 5.077351,-13.06681 6.754463,-13.17207 18.35437,-24.55081 32.229633,-31.61513 10.010631,-5.09673 20.194382,-7.69053 32.157613,-8.19055 37.951032,-1.5862 71.598712,24.62471 79.633042,62.03265 1.76999,8.24113 1.9245,22.6529 0.32324,30.15089 -3.32609,15.57461 -9.9757,27.99237 -20.78622,38.81717 -11.9945,12.0102 -26.49013,19.2959 -43.54504,21.886 -5.120111,0.7776 -15.398394,1.0166 -19.830804,0.4611 z m -14.799107,-22.0263 c 7.934672,-4.9645 15.077301,-20.41276 15.30349,-33.09873 l 0.08758,-4.91209 -9.76741,-3.99768 c -12.004685,-4.91336 -16.62972,-7.32175 -25.78543,-13.42723 -8.015759,-5.34529 -20.010547,-14.46698 -19.584268,-14.89326 0.350378,-0.35037 0.459128,-0.29315 15.574444,8.1954 13.433422,7.54402 19.434163,10.38381 32.880821,15.56052 10.520253,4.0501 13.256632,4.22474 23.436743,1.49576 14.309641,-3.83598 22.485661,-8.18216 30.586991,-16.25932 2.93899,-2.93023 6.65581,-7.25897 8.2596,-9.61942 5.22334,-7.68775 4.58724,-4.58504 -1.04367,5.09072 -7.7665,13.34538 -20.93961,22.17619 -40.350681,27.04975 -3.58138,0.89918 -6.797249,1.92705 -7.146372,2.28414 -0.349117,0.3571 -0.970573,2.38077 -1.381011,4.49704 -2.510219,12.94315 -11.63755,27.9287 -19.419341,31.8834 -3.074325,1.5624 -4.049764,1.6515 -1.651486,0.151 z m 15.983036,-49.11882 c -4.113217,-2.54071 -5.623661,-5.87991 -5.623661,-12.43243 0,-4.63685 1.398386,-10.66882 3.354999,-14.47186 2.295549,-4.46183 7.811052,-8.71036 11.272533,-8.68311 2.056218,0.0162 6.054383,1.81281 7.395483,3.32324 0.554561,0.62458 1.716741,2.68309 2.582651,4.57445 1.43901,3.14324 1.55284,3.93063 1.32404,9.1594 -0.29335,6.70381 -1.91516,10.8192 -5.869411,14.89379 -4.335835,4.46778 -10.554799,6.0343 -14.436634,3.63652 z m 7.90013,-3.76374 c 6.708664,-4.13615 10.223355,-17.32826 6.535394,-24.53011 -2.880743,-5.62552 -7.554745,-6.3487 -12.55956,-1.94329 -4.122628,3.62888 -5.892537,7.85831 -6.196877,14.80827 -0.211107,4.82071 -0.07092,6.01582 0.937417,7.99152 2.758601,5.40512 6.499673,6.62311 11.283626,3.67361 z"
       id="path5689"
       inkscape:connector-curvature="0" />
    <path
       style="fill:#000000"
       d="m 95.40549,1051.1947 c -33.589348,-4.5782 -60.003431,-28.9223 -66.995927,-61.74581 -5.507142,-25.85097 2.612938,-53.17239 21.314419,-71.71611 24.682448,-24.4743 61.272208,-29.92436 92.350428,-13.75569 35.19264,18.3092 50.95835,61.96279 35.76625,99.03291 -7.55686,18.4394 -24.4522,35.3348 -42.89162,42.8916 -11.43722,4.6872 -27.86021,6.8855 -39.54355,5.2931 z m 27.46125,-10.9502 c 28.98173,-7.7612 49.57609,-33.0076 51.3909,-62.99946 2.1553,-35.61876 -23.63103,-67.34462 -58.93215,-72.5063 -45.802231,-6.69719 -85.34491,32.84551 -78.647747,78.64772 3.045479,20.82804 14.977362,38.37144 33.786552,49.67604 6.426394,3.8624 16.714797,7.6272 24.038188,8.7961 6.724487,1.0734 21.459897,0.2349 28.364257,-1.6141 z m -9.26587,-14.5575 c -11.9491,-4.2586 -28.652853,-23.7379 -39.12085,-45.6213 -5.590102,-11.68615 -8.552359,-21.53537 -9.148327,-30.41745 -0.582793,-8.68536 0.993473,-12.71224 6.580084,-16.81014 2.095547,-1.53714 4.164403,-2.79434 4.597443,-2.79382 0.699557,8.7e-4 14.565869,23.43002 14.565869,24.61117 0,0.26061 -0.920512,1.81835 -2.045603,3.46146 -1.856928,2.71198 -2.014739,3.53214 -1.711112,8.89262 0.600036,10.59237 8.355706,23.86156 16.859696,28.84522 2.88494,1.6907 4.21949,1.99089 7.6034,1.71025 l 4.1043,-0.34034 7.31384,12.57793 c 5.49688,9.4533 7.06052,12.7407 6.29412,13.2333 -2.03073,1.305 -9.38697,3.8111 -11.0879,3.7773 -0.9581,-0.018 -3.12033,-0.5258 -4.80496,-1.1262 z m 13.85072,-13.6019 c -9.13985,-15.62101 -10.42614,-18.0949 -9.98483,-19.20369 0.55135,-1.38526 8.74311,-6.18823 10.55437,-6.18823 1.91711,0 2.87048,1.28343 9.65031,12.99121 7.8987,13.63991 7.88781,13.61721 7.34489,15.32791 -0.54317,1.7113 -8.27133,6.3241 -10.59524,6.3241 -1.15506,0 -2.9527,-2.3862 -6.9695,-9.2513 z M 94.084482,953.8215 C 91.592716,950.89063 79.26493,928.59458 79.26493,927.01884 c 0,-1.20189 1.321927,-2.43797 4.766249,-4.45662 5.421295,-3.17733 6.335456,-3.33968 7.971272,-1.41557 2.054421,2.41647 14.819549,25.09177 14.819549,26.32467 0,1.46218 -1.68374,2.9562 -6.36792,5.65039 -4.264997,2.45308 -4.826558,2.51478 -6.369598,0.69979 z"
       id="path6894"
       inkscape:connector-curvature="0" />
  </g>
</svg>
