<?xml version="1.0" encoding="UTF-8" standalone="no"?>
<!-- Created with Inkscape (http://www.inkscape.org/) -->

<svg
   xmlns:dc="http://purl.org/dc/elements/1.1/"
   xmlns:cc="http://creativecommons.org/ns#"
   xmlns:rdf="http://www.w3.org/1999/02/22-rdf-syntax-ns#"
   xmlns:svg="http://www.w3.org/2000/svg"
   xmlns="http://www.w3.org/2000/svg"
   xmlns:sodipodi="http://sodipodi.sourceforge.net/DTD/sodipodi-0.dtd"
   xmlns:inkscape="http://www.inkscape.org/namespaces/inkscape"
   width="159.89113"
   height="159.32957"
   viewBox="0 0 159.89112 159.32956"
   id="svg4168"
   version="1.1"
   inkscape:version="0.91 r13725"
   sodipodi:docname="phone-call1.svg">
  <defs
     id="defs4170" />
  <sodipodi:namedview
     id="base"
     pagecolor="#ffffff"
     bordercolor="#666666"
     borderopacity="1.0"
     inkscape:pageopacity="0.0"
     inkscape:pageshadow="2"
     inkscape:zoom="2.8"
     inkscape:cx="53.604999"
     inkscape:cy="84.978145"
     inkscape:document-units="px"
     inkscape:current-layer="layer1"
     showgrid="false"
     units="px"
     inkscape:window-width="1440"
     inkscape:window-height="852"
     inkscape:window-x="0"
     inkscape:window-y="0"
     inkscape:window-maximized="1"
     fit-margin-top="0"
     fit-margin-left="0"
     fit-margin-right="0"
     fit-margin-bottom="0" />
  <metadata
     id="metadata4173">
    <rdf:RDF>
      <cc:Work
         rdf:about="">
        <dc:format>image/svg+xml</dc:format>
        <dc:type
           rdf:resource="http://purl.org/dc/dcmitype/StillImage" />
        <dc:title></dc:title>
      </cc:Work>
    </rdf:RDF>
  </metadata>
  <g
     inkscape:label="Layer 1"
     inkscape:groupmode="layer"
     id="layer1"
     transform="translate(-25.923257,-893.93531)">
    <path
       style="fill:#14c269;fill-opacity:0"
       d="m 82.128216,1038.2584 c -4.336446,-0.5434 -13.87688,-2.7859 -17.710849,-4.1629 -9.876385,-3.5471 -19.515452,-9.5012 -27.279691,-16.8507 -2.76674,-2.619 -5.030441,-5.0278 -5.030441,-5.353 0,-0.3252 1.588631,0.8795 3.530297,2.6771 17.018932,15.7566 38.609816,23.3727 60.207426,21.2381 33.178842,-3.2792 58.963052,-26.0915 65.692932,-58.12091 1.42325,-6.77365 1.44647,-20.36184 0.0461,-26.97034 -4.75223,-22.42603 -18.67823,-40.78914 -38.6841,-51.00962 -12.18782,-6.22643 -21.86438,-8.58986 -35.148033,-8.58466 -13.335582,0.005 -22.097671,1.97097 -33.476628,7.51036 -14.842403,7.22543 -26.011934,18.16788 -33.755712,33.06944 -1.830359,3.52221 -3.47292,6.25902 -3.650136,6.08181 -0.515931,-0.51593 2.119949,-7.2995 5.077351,-13.06681 6.754463,-13.17207 18.35437,-24.55081 32.229633,-31.61513 10.010631,-5.09673 20.194382,-7.69053 32.157613,-8.19055 37.951032,-1.5862 71.598712,24.62471 79.633042,62.03265 1.76999,8.24113 1.9245,22.6529 0.32324,30.15089 -3.32609,15.57461 -9.9757,27.99237 -20.78622,38.81717 -11.9945,12.0102 -26.49013,19.2959 -43.54504,21.886 -5.120111,0.7776 -15.398394,1.0166 -19.830804,0.4611 z m -14.799107,-22.0263 c 7.934672,-4.9645 15.077301,-20.41276 15.30349,-33.09873 l 0.08758,-4.91209 -9.76741,-3.99768 c -12.004685,-4.91336 -16.62972,-7.32175 -25.78543,-13.42723 -8.015759,-5.34529 -20.010547,-14.46698 -19.584268,-14.89326 0.350378,-0.35037 0.459128,-0.29315 15.574444,8.1954 13.433422,7.54402 19.434163,10.38381 32.880821,15.56052 10.520253,4.0501 13.256632,4.22474 23.436743,1.49576 14.309641,-3.83598 22.485661,-8.18216 30.586991,-16.25932 2.93899,-2.93023 6.65581,-7.25897 8.2596,-9.61942 5.22334,-7.68775 4.58724,-4.58504 -1.04367,5.09072 -7.7665,13.34538 -20.93961,22.17619 -40.350681,27.04975 -3.58138,0.89918 -6.797249,1.92705 -7.146372,2.28414 -0.349117,0.3571 -0.970573,2.38077 -1.381011,4.49704 -2.510219,12.94315 -11.63755,27.9287 -19.419341,31.8834 -3.074325,1.5624 -4.049764,1.6515 -1.651486,0.151 z m 15.983036,-49.11882 c -4.113217,-2.54071 -5.623661,-5.87991 -5.623661,-12.43243 0,-4.63685 1.398386,-10.66882 3.354999,-14.47186 2.295549,-4.46183 7.811052,-8.71036 11.272533,-8.68311 2.056218,0.0162 6.054383,1.81281 7.395483,3.32324 0.554561,0.62458 1.716741,2.68309 2.582651,4.57445 1.43901,3.14324 1.55284,3.93063 1.32404,9.1594 -0.29335,6.70381 -1.91516,10.8192 -5.869411,14.89379 -4.335835,4.46778 -10.554799,6.0343 -14.436634,3.63652 z m 7.90013,-3.76374 c 6.708664,-4.13615 10.223355,-17.32826 6.535394,-24.53011 -2.880743,-5.62552 -7.554745,-6.3487 -12.55956,-1.94329 -4.122628,3.62888 -5.892537,7.85831 -6.196877,14.80827 -0.211107,4.82071 -0.07092,6.01582 0.937417,7.99152 2.758601,5.40512 6.499673,6.62311 11.283626,3.67361 z"
       id="path5689"
       inkscape:connector-curvature="0" />
    <path
       style="fill:#000000"
       d="M 130.52537,1051.3896 C 92.067662,1041.1131 44.694457,996.00119 29.958238,955.623 c -5.601318,-15.348 -5.379113,-25.52261 0.718139,-32.88291 10.728022,-12.95031 20.882812,-16.25725 29.323629,-9.54934 3.966067,3.15182 10.897753,11.79187 13.418793,16.72593 4.24257,8.30338 3.278847,12.73255 -4.811411,22.11287 -5.028173,5.82992 -5.488404,8.2039 -2.746923,14.16935 2.722262,5.92362 8.543084,13.05201 20.562525,25.18157 15.62242,15.76553 27.28828,24.12083 33.71749,24.14883 1.1907,0.01 4.20114,-1.9253 7.10909,-4.5587 9.2332,-8.3617 13.95641,-9.3104 23.24426,-4.6693 6.16884,3.0827 16.27167,11.7622 18.33483,15.752 1.8732,3.6223 1.6906,9.5069 -0.42137,13.5803 -2.23995,4.3202 -13.52047,15.4566 -16.96119,16.7444 -3.9937,1.4949 -13.26741,1.0567 -20.92073,-0.9884 z m 40.99737,-64.85967 c -1.24501,-1.24504 -2.29042,-2.80128 -2.32316,-3.45837 -0.0326,-0.65709 -0.18291,-5.13726 -0.33388,-9.95592 -0.20627,-6.58851 -0.84861,-10.30302 -2.5899,-14.97848 -6.2535,-16.79095 -20.98864,-33.16431 -37.13378,-41.26221 -9.43176,-4.73071 -16.43998,-6.47106 -26.05818,-6.47106 -6.931983,0 -7.909487,-0.22226 -9.950785,-2.26365 -4.421578,-4.4216 -2.40186,-11.39032 3.904452,-13.47159 4.693823,-1.5491 18.488533,-0.52717 26.576683,1.96878 29.20191,9.01165 54.84041,36.68278 60.78413,65.6031 2.59904,12.6461 1.57023,22.29406 -2.67382,25.0749 -3.34312,2.19048 -7.54967,1.86659 -10.20176,-0.7855 z m -28.54725,-6.22811 c -2.8504,-1.63468 -3.88075,-3.48001 -5.41537,-9.69871 -3.2916,-13.33842 -14.81535,-24.84206 -28.69407,-28.64393 -6.83051,-1.87111 -9.372026,-3.65754 -10.264899,-7.21501 -0.901728,-3.59271 0.61602,-6.93417 4.064369,-8.94811 2.90696,-1.69774 3.26599,-1.70659 9.21724,-0.22687 20.69924,5.14679 36.86074,21.14311 42.0921,41.662 1.74351,6.83862 0.75709,10.77532 -3.2146,12.82916 -3.11459,1.61065 -5.28023,1.67779 -7.78477,0.24132 z"
       id="path6821"
       inkscape:connector-curvature="0" />
  </g>
</svg>
