<?xml version="1.0" encoding="UTF-8" standalone="no"?>
<!-- Created with Inkscape (http://www.inkscape.org/) -->

<svg
   xmlns:dc="http://purl.org/dc/elements/1.1/"
   xmlns:cc="http://creativecommons.org/ns#"
   xmlns:rdf="http://www.w3.org/1999/02/22-rdf-syntax-ns#"
   xmlns:svg="http://www.w3.org/2000/svg"
   xmlns="http://www.w3.org/2000/svg"
   xmlns:sodipodi="http://sodipodi.sourceforge.net/DTD/sodipodi-0.dtd"
   xmlns:inkscape="http://www.inkscape.org/namespaces/inkscape"
   width="103.02721"
   height="174.32431"
   viewBox="0 0 103.02721 174.32431"
   id="svg4168"
   version="1.1"
   inkscape:version="0.91 r13725"
   sodipodi:docname="phone.svg">
  <defs
     id="defs4170" />
  <sodipodi:namedview
     id="base"
     pagecolor="#ffffff"
     bordercolor="#666666"
     borderopacity="1.0"
     inkscape:pageopacity="0.0"
     inkscape:pageshadow="2"
     inkscape:zoom="2.8"
     inkscape:cx="120.54359"
     inkscape:cy="80.927459"
     inkscape:document-units="px"
     inkscape:current-layer="layer1"
     showgrid="false"
     units="px"
     inkscape:window-width="1440"
     inkscape:window-height="852"
     inkscape:window-x="0"
     inkscape:window-y="0"
     inkscape:window-maximized="1"
     fit-margin-top="0"
     fit-margin-left="0"
     fit-margin-right="0"
     fit-margin-bottom="0" />
  <metadata
     id="metadata4173">
    <rdf:RDF>
      <cc:Work
         rdf:about="">
        <dc:format>image/svg+xml</dc:format>
        <dc:type
           rdf:resource="http://purl.org/dc/dcmitype/StillImage" />
        <dc:title></dc:title>
      </cc:Work>
    </rdf:RDF>
  </metadata>
  <g
     inkscape:label="Layer 1"
     inkscape:groupmode="layer"
     id="layer1"
     transform="translate(-3.6514241,-874.88986)">
    <path
       style="fill:#000000"
       d="m 19.523535,1048.2515 c -5.374918,-1.6184 -9.9771432,-5.2078 -12.6401884,-9.8585 L 4.2466193,1033.7883 3.9490216,963.17362 3.6514241,892.5589 6.464293,886.80961 c 1.8781745,-3.83884 4.26353,-6.70982 7.178486,-8.63996 l 4.365618,-2.89065 34.570854,-0.32238 c 22.654306,-0.21134 36.069579,0.0811 38.918805,0.84831 5.283287,1.42266 11.620404,6.77481 13.582954,11.47187 2.13017,5.09821 2.13017,144.4097 0,149.5079 -1.91265,4.5777 -8.216172,9.9999 -13.250138,11.3978 -4.7998,1.333 -67.909696,1.3932 -72.307319,0.07 z m 22.743896,-25.1733 0,-6.9615 -6.961557,0 -6.961558,0 0,6.9615 0,6.9616 6.961558,0 6.961557,0 0,-6.9616 z m 21.203529,-0.2678 0.318839,-6.6937 -7.012661,0 -7.012664,0 0,7.0126 0,7.0128 6.693806,-0.319 6.693801,-0.3188 0.318876,-6.6938 z m 20.56581,0.2678 0,-6.9615 -6.961557,0 -6.961558,0 0,6.2475 c 0,3.4362 0.321304,6.5689 0.714011,6.9615 0.392695,0.3928 3.525396,0.7141 6.961557,0.7141 l 6.247547,0 0,-6.9616 z m -41.988157,-21.1525 0.316698,-7.22922 -7.010492,0 -7.010492,0 0,6.78302 c 0,3.7307 0.342331,7.1254 0.760731,7.5438 0.418404,0.4184 3.430616,0.6192 6.693805,0.4462 l 5.933074,-0.3144 0.316698,-7.2294 z m 21.103486,0.2678 0,-6.96152 -6.693802,-0.31881 -6.693804,-0.3188 0,6.83423 c 0,3.7588 0.34233,7.1764 0.76073,7.5948 0.418404,0.4184 3.430616,0.6192 6.693805,0.4462 l 5.933071,-0.3144 0,-6.9616 z m 20.667052,-0.3201 0.317876,-7.28181 -6.743927,0.32023 -6.743939,0.32023 -0.328586,5.76295 c -0.48326,8.4758 -0.16922,8.8558 7.009431,8.4817 l 6.171259,-0.3215 0.317876,-7.2818 z m -41.55172,-20.56461 0,-6.96155 -6.961557,0 -6.961558,0 0,6.96155 0,6.96156 6.961558,0 6.961557,0 0,-6.96156 z m 21.203529,-0.26775 0.318839,-6.6938 -7.012661,0 -7.012664,0 0,7.01267 0,7.01264 6.693806,-0.3188 6.693801,-0.3188 0.318876,-6.69381 z m 20.56581,0.26775 0,-6.96155 -6.961557,0 -6.961558,0 0,6.24755 c 0,3.43614 0.321304,6.56885 0.714011,6.96155 0.392695,0.39271 3.525396,0.71401 6.961557,0.71401 l 6.247547,0 0,-6.96156 z m 12.601564,-55.9602 0.28496,-29.18499 -41.251046,0 -41.251049,0 0,29.46544 0,29.4655 40.966086,-0.28061 40.966083,-0.2806 0.284959,-29.18499 z"
       id="path5218"
       inkscape:connector-curvature="0" />
  </g>
</svg>
