<?xml version="1.0" encoding="UTF-8" standalone="no"?>
<!-- Created with Inkscape (http://www.inkscape.org/) -->

<svg
   xmlns:dc="http://purl.org/dc/elements/1.1/"
   xmlns:cc="http://creativecommons.org/ns#"
   xmlns:rdf="http://www.w3.org/1999/02/22-rdf-syntax-ns#"
   xmlns:svg="http://www.w3.org/2000/svg"
   xmlns="http://www.w3.org/2000/svg"
   xmlns:sodipodi="http://sodipodi.sourceforge.net/DTD/sodipodi-0.dtd"
   xmlns:inkscape="http://www.inkscape.org/namespaces/inkscape"
   width="145.56261"
   height="161.23566"
   viewBox="0 0 145.5626 161.23564"
   id="svg4168"
   version="1.1"
   inkscape:version="0.91 r13725"
   sodipodi:docname="schedule.svg">
  <defs
     id="defs4170" />
  <sodipodi:namedview
     id="base"
     pagecolor="#ffffff"
     bordercolor="#666666"
     borderopacity="1.0"
     inkscape:pageopacity="0.0"
     inkscape:pageshadow="2"
     inkscape:zoom="2.8"
     inkscape:cx="54.478162"
     inkscape:cy="85.762945"
     inkscape:document-units="px"
     inkscape:current-layer="layer1"
     showgrid="false"
     units="px"
     inkscape:window-width="1440"
     inkscape:window-height="852"
     inkscape:window-x="0"
     inkscape:window-y="0"
     inkscape:window-maximized="1"
     fit-margin-top="0"
     fit-margin-left="0"
     fit-margin-right="0"
     fit-margin-bottom="0" />
  <metadata
     id="metadata4173">
    <rdf:RDF>
      <cc:Work
         rdf:about="">
        <dc:format>image/svg+xml</dc:format>
        <dc:type
           rdf:resource="http://purl.org/dc/dcmitype/StillImage" />
        <dc:title></dc:title>
      </cc:Work>
    </rdf:RDF>
  </metadata>
  <g
     inkscape:label="Layer 1"
     inkscape:groupmode="layer"
     id="layer1"
     transform="translate(-25.050094,-892.81402)">
    <path
       style="fill:#14c269;fill-opacity:0"
       d="m 82.128216,1038.2584 c -4.336446,-0.5434 -13.87688,-2.7859 -17.710849,-4.1629 -9.876385,-3.5471 -19.515452,-9.5012 -27.279691,-16.8507 -2.76674,-2.619 -5.030441,-5.0278 -5.030441,-5.353 0,-0.3252 1.588631,0.8795 3.530297,2.6771 17.018932,15.7566 38.609816,23.3727 60.207426,21.2381 33.178842,-3.2792 58.963052,-26.0915 65.692932,-58.12091 1.42325,-6.77365 1.44647,-20.36184 0.0461,-26.97034 -4.75223,-22.42603 -18.67823,-40.78914 -38.6841,-51.00962 -12.18782,-6.22643 -21.86438,-8.58986 -35.148033,-8.58466 -13.335582,0.005 -22.097671,1.97097 -33.476628,7.51036 -14.842403,7.22543 -26.011934,18.16788 -33.755712,33.06944 -1.830359,3.52221 -3.47292,6.25902 -3.650136,6.08181 -0.515931,-0.51593 2.119949,-7.2995 5.077351,-13.06681 6.754463,-13.17207 18.35437,-24.55081 32.229633,-31.61513 10.010631,-5.09673 20.194382,-7.69053 32.157613,-8.19055 37.951032,-1.5862 71.598712,24.62471 79.633042,62.03265 1.76999,8.24113 1.9245,22.6529 0.32324,30.15089 -3.32609,15.57461 -9.9757,27.99237 -20.78622,38.81717 -11.9945,12.0102 -26.49013,19.2959 -43.54504,21.886 -5.120111,0.7776 -15.398394,1.0166 -19.830804,0.4611 z m -14.799107,-22.0263 c 7.934672,-4.9645 15.077301,-20.41276 15.30349,-33.09873 l 0.08758,-4.91209 -9.76741,-3.99768 c -12.004685,-4.91336 -16.62972,-7.32175 -25.78543,-13.42723 -8.015759,-5.34529 -20.010547,-14.46698 -19.584268,-14.89326 0.350378,-0.35037 0.459128,-0.29315 15.574444,8.1954 13.433422,7.54402 19.434163,10.38381 32.880821,15.56052 10.520253,4.0501 13.256632,4.22474 23.436743,1.49576 14.309641,-3.83598 22.485661,-8.18216 30.586991,-16.25932 2.93899,-2.93023 6.65581,-7.25897 8.2596,-9.61942 5.22334,-7.68775 4.58724,-4.58504 -1.04367,5.09072 -7.7665,13.34538 -20.93961,22.17619 -40.350681,27.04975 -3.58138,0.89918 -6.797249,1.92705 -7.146372,2.28414 -0.349117,0.3571 -0.970573,2.38077 -1.381011,4.49704 -2.510219,12.94315 -11.63755,27.9287 -19.419341,31.8834 -3.074325,1.5624 -4.049764,1.6515 -1.651486,0.151 z m 15.983036,-49.11882 c -4.113217,-2.54071 -5.623661,-5.87991 -5.623661,-12.43243 0,-4.63685 1.398386,-10.66882 3.354999,-14.47186 2.295549,-4.46183 7.811052,-8.71036 11.272533,-8.68311 2.056218,0.0162 6.054383,1.81281 7.395483,3.32324 0.554561,0.62458 1.716741,2.68309 2.582651,4.57445 1.43901,3.14324 1.55284,3.93063 1.32404,9.1594 -0.29335,6.70381 -1.91516,10.8192 -5.869411,14.89379 -4.335835,4.46778 -10.554799,6.0343 -14.436634,3.63652 z m 7.90013,-3.76374 c 6.708664,-4.13615 10.223355,-17.32826 6.535394,-24.53011 -2.880743,-5.62552 -7.554745,-6.3487 -12.55956,-1.94329 -4.122628,3.62888 -5.892537,7.85831 -6.196877,14.80827 -0.211107,4.82071 -0.07092,6.01582 0.937417,7.99152 2.758601,5.40512 6.499673,6.62311 11.283626,3.67361 z"
       id="path5689"
       inkscape:connector-curvature="0" />
    <path
       style="fill:#000000"
       d="m 129.43079,1053.2261 c -2.33922,-0.5027 -5.58018,-1.6882 -8.28161,-3.0294 -3.65717,-1.8154 -5.14203,-2.9025 -8.4363,-6.1768 -2.44265,-2.4277 -4.60704,-5.0935 -5.56367,-6.8524 l -1.56573,-2.879 -39.049989,-0.01 -39.049984,-0.01 -1.216707,-1.2167 -1.216706,-1.2167 0,-44.24199 0,-44.24197 60.914727,0 60.914719,0 0.11984,21.73229 0.11984,21.7323 2.76906,1.16631 c 1.52298,0.64146 4.1566,2.06317 5.8525,3.15937 2.5576,1.65317 3.17407,1.88386 3.61482,1.35279 0.29355,-0.35372 0.39056,-1.08398 0.21674,-1.63164 -0.23734,-0.74776 0.0591,-1.37689 1.20617,-2.56045 0.83646,-0.86299 1.70816,-1.56909 1.9371,-1.56909 0.69937,0 6.32531,5.80547 6.32531,6.52715 0,0.37176 -0.70467,1.35891 -1.5659,2.19367 -1.31026,1.26994 -1.71674,1.43699 -2.48985,1.02325 -0.70077,-0.37504 -1.05375,-0.33807 -1.46137,0.15306 -0.42545,0.51265 -0.1584,1.20774 1.28171,3.33626 2.20804,3.26349 3.3066,5.44059 4.73328,9.38059 0.9733,2.6878 1.08489,3.7677 1.07314,10.3839 -0.0123,6.826 -0.10631,7.6413 -1.24506,10.7859 -2.09773,5.7925 -4.28627,9.2007 -8.7023,13.5523 -3.50726,3.4561 -4.76643,4.3559 -8.81842,6.3016 -7.64438,3.6709 -14.51735,4.5436 -22.41548,2.8463 z m 15.49248,-9.9547 c 4.26853,-1.5275 7.76428,-3.809 10.57853,-6.9041 9.10038,-10.0085 8.78072,-25.3743 -0.72457,-34.8298 -5.10076,-5.07413 -11.0617,-7.57778 -18.04185,-7.57778 -16.39021,0 -28.6931,15.62078 -24.68079,31.33678 3.70677,14.5192 19.06082,22.9159 32.86868,17.9749 z m -10.63984,-18.1339 c -0.69433,-0.7247 -1.24013,-1.8212 -1.24013,-2.4914 0,-0.8105 -1.19186,-2.661 -3.69207,-5.7323 -2.03064,-2.4945 -3.69208,-4.8066 -3.69208,-5.138 0,-1.4975 1.62542,-0.9242 6.02962,2.1268 l 4.68497,3.2455 7.35828,-5.5402 c 7.49376,-5.6423 9.22532,-6.4302 9.51352,-4.3287 0.12661,0.9234 -11.31319,16.6611 -13.33513,18.345 -1.53318,1.2769 -4.15454,1.0502 -5.62698,-0.4867 z m 4.02948,-1.7548 c 1.11158,-0.4265 0.95017,-2.8184 -0.21515,-3.1882 -1.7602,-0.5587 -3.04398,1.6021 -1.73159,2.9145 0.62862,0.6287 0.91634,0.6691 1.94674,0.2737 z m -79.679014,-9.7577 -0.1243,-10.0378 -10.730086,-0.1239 -10.730094,-0.1238 0,10.1617 0,10.1617 10.854472,0 10.854461,0 -0.1243,-10.0378 z m 24.921508,0 -0.124454,-10.0378 -10.153207,0 -10.153207,0 -0.1243,10.0378 -0.124454,10.0378 10.401961,0 10.401961,0 -0.1243,-10.0378 z m 19.028266,5.969 c 0,-5.127 0.61294,-8.4586 2.33264,-12.6786 0.74595,-1.8305 1.35699,-3.3845 1.35786,-3.4534 9.3e-4,-0.069 -4.10009,-0.069 -9.113238,0 l -9.114811,0.1251 -0.1243,10.0378 -0.1243,10.0379 7.39315,0 7.393149,0 0,-4.0689 z m -43.949774,-30.429 -0.1243,-10.03783 -10.730086,-0.12384 -10.730094,-0.12383 0,10.16171 0,10.16171 10.854472,0 10.854461,0 -0.1243,-10.03783 z m 24.921508,0 -0.124454,-10.03783 -10.153207,0 -10.153207,0 -0.125223,9.44848 c -0.06892,5.19668 -0.02354,9.7137 0.100917,10.03783 0.17402,0.45347 2.572484,0.58935 10.402853,0.58935 l 10.176682,0 -0.1243,-10.03783 z m -16.046452,-0.11538 0,-5.53811 5.538113,0 5.538113,0 0,5.53811 0,5.53812 -5.538113,0 -5.538113,0 0,-5.53812 z m 42.136238,9.17755 c 0.25825,-0.40971 0.33572,-1.09362 0.17218,-1.51981 -0.2437,-0.63505 -0.47408,-0.68033 -1.27662,-0.25082 -0.84348,0.45142 -1.19634,0.31366 -2.54514,-0.99364 -0.86124,-0.83477 -1.5659,-1.82392 -1.5659,-2.19814 0,-0.37421 1.25409,-1.89616 2.78687,-3.38208 l 2.78685,-2.70171 -0.13322,-4.0269 -0.13322,-4.0269 -10.845475,0 -10.845471,0 -0.125223,9.44848 c -0.06892,5.19668 -0.022,9.71761 0.104302,10.04653 0.180557,0.4705 2.460137,0.57157 10.690019,0.47397 9.037288,-0.10723 10.524428,-0.22542 10.930078,-0.86898 z m 13.47566,-10.06735 c 2.86971,-1.26406 9.11606,-2.79473 11.42236,-2.79904 l 1.73066,-0.003 0,-3.23892 0,-3.23892 -10.96085,0.12369 -10.96086,0.12368 -0.12907,6.43891 c -0.0709,3.5414 -0.0255,6.70853 0.10092,7.03808 0.16212,0.42248 1.15277,0.006 3.35958,-1.41438 1.72131,-1.10742 4.16805,-2.4709 5.4372,-3.02996 z m -64.380577,-24.26246 0,-10.84547 -10.845463,0 -10.845471,0 0,10.84547 0,10.84547 10.845471,0 10.845463,0 0,-10.84547 z m 24.921509,0 0,-10.84547 -10.383962,0 -10.383962,0 0,10.5378 c 0,5.79579 0.138453,10.67625 0.307688,10.84547 0.169205,0.16922 4.841988,0.30767 10.383962,0.30767 l 10.076274,0 0,-10.84547 z m 26.306038,0 0,-10.84547 -11.076228,0 -11.076226,0 0,10.5378 c 0,5.79579 0.138453,10.67625 0.307689,10.84547 0.169205,0.16922 5.153506,0.30767 11.076226,0.30767 l 10.768539,0 0,-10.84547 z m 26.30605,0 0,-10.84547 -11.07623,0 -11.07624,0 0,10.5378 c 0,5.79579 0.13846,10.67625 0.30769,10.84547 0.16921,0.16922 5.15352,0.30767 11.07623,0.30767 l 10.76855,0 0,-10.84547 z M 25.050094,926.8322 l 0,-11.91291 1.294405,-1.24011 1.294403,-1.24012 12.781634,0 12.781632,0 0,3.38979 c 0,2.88092 -0.148129,3.52178 -0.986716,4.26896 -2.123308,1.8919 -2.841449,5.74252 -1.608425,8.62429 2.297417,5.3694 9.313157,6.60918 13.295875,2.34956 3.057116,-3.26967 2.942538,-8.26267 -0.257291,-11.21351 -1.082224,-0.99802 -1.213262,-1.45906 -1.213262,-4.26896 l 0,-3.15013 23.07547,0 23.075471,0 0,3.38979 c 0,2.88092 -0.14814,3.52178 -0.98671,4.26896 -2.12331,1.8919 -2.84145,5.74252 -1.60842,8.62429 2.29741,5.3694 9.31315,6.60918 13.29587,2.34956 3.05712,-3.26967 2.94256,-8.26267 -0.25729,-11.21351 -1.08222,-0.99802 -1.21325,-1.45906 -1.21325,-4.26896 l 0,-3.15013 13.24314,0 13.24315,0 1.2944,1.24012 1.29441,1.24011 0,11.91291 0,11.9129 -60.919261,0 -60.919235,0 0,-11.9129 z m 30.93023,-0.19889 c -2.248074,-1.17425 -2.331915,-1.83216 -2.204553,-17.29722 0.117531,-14.26223 0.129376,-14.42062 1.159388,-15.45008 1.430402,-1.42957 4.334327,-1.42928 5.764207,6e-4 1.037196,1.0372 1.040719,1.09157 1.040719,16.01415 0,14.36673 -0.03754,15.01089 -0.924619,15.89805 -1.207201,1.2072 -3.397817,1.58528 -4.835142,0.8345 z m 55.381126,0 c -2.24807,-1.17425 -2.33191,-1.83216 -2.20455,-17.29722 0.11738,-14.26223 0.12938,-14.42062 1.15939,-15.45008 1.4304,-1.42957 4.33433,-1.42928 5.76421,6e-4 1.03719,1.0372 1.04073,1.09157 1.04073,16.01415 0,14.36673 -0.0375,15.01089 -0.92462,15.89805 -1.20722,1.2072 -3.39783,1.58528 -4.83516,0.8345 z"
       id="path6748"
       inkscape:connector-curvature="0" />
  </g>
</svg>
