<?xml version="1.0" encoding="UTF-8" standalone="no"?>
<!-- Created with Inkscape (http://www.inkscape.org/) -->

<svg
   xmlns:dc="http://purl.org/dc/elements/1.1/"
   xmlns:cc="http://creativecommons.org/ns#"
   xmlns:rdf="http://www.w3.org/1999/02/22-rdf-syntax-ns#"
   xmlns:svg="http://www.w3.org/2000/svg"
   xmlns="http://www.w3.org/2000/svg"
   xmlns:sodipodi="http://sodipodi.sourceforge.net/DTD/sodipodi-0.dtd"
   xmlns:inkscape="http://www.inkscape.org/namespaces/inkscape"
   width="130"
   height="180"
   viewBox="0 0 130 180"
   id="svg4168"
   version="1.1"
   inkscape:version="0.91 r13725"
   sodipodi:docname="sync.svg">
  <defs
     id="defs4170" />
  <sodipodi:namedview
     id="base"
     pagecolor="#ffffff"
     bordercolor="#666666"
     borderopacity="1.0"
     inkscape:pageopacity="0.0"
     inkscape:pageshadow="2"
     inkscape:zoom="2.8"
     inkscape:cx="124.19501"
     inkscape:cy="84.075448"
     inkscape:document-units="px"
     inkscape:current-layer="layer1"
     showgrid="false"
     units="px"
     inkscape:window-width="1440"
     inkscape:window-height="852"
     inkscape:window-x="0"
     inkscape:window-y="0"
     inkscape:window-maximized="1" />
  <metadata
     id="metadata4173">
    <rdf:RDF>
      <cc:Work
         rdf:about="">
        <dc:format>image/svg+xml</dc:format>
        <dc:type
           rdf:resource="http://purl.org/dc/dcmitype/StillImage" />
        <dc:title></dc:title>
      </cc:Work>
    </rdf:RDF>
  </metadata>
  <g
     inkscape:label="Layer 1"
     inkscape:groupmode="layer"
     id="layer1"
     transform="translate(0,-872.36216)">
    <path
       style="fill:#000000"
       d="m 13.192095,1033.4548 c -5.7180709,-9.1387 -10.5627421,-17.0231 -10.765944,-17.5207 -0.2031873,-0.4975 3.3671675,-4.3944 7.934155,-8.6594 8.015108,-7.48516 8.304859,-7.93145 8.339332,-12.84475 0.01824,-2.79962 0.888334,-7.55573 1.930389,-10.56922 1.843497,-5.33109 26.438829,-48.69253 29.481204,-51.97516 1.339503,-1.44533 1.840213,-1.2745 4.18843,1.42899 1.547106,1.78111 2.66708,4.44448 2.66708,6.34235 0,1.79947 -3.033181,11.00575 -6.740347,20.45835 -6.589944,16.803 -6.742937,17.4307 -6.856277,28.13016 -0.06383,6.01902 -0.526134,12.47768 -1.027463,14.35248 l -0.911497,3.4089 10.600541,3.7045 c 8.650636,3.0232 10.898062,4.274 12.217831,6.8001 0.913723,1.7489 3.570224,3.9698 6.106564,5.1055 l 4.489235,2.0097 -5.148481,3.2651 c -2.831673,1.7958 -8.454892,4.0912 -12.496021,5.1009 -10.433468,2.6066 -17.490853,6.1141 -25.183446,12.5158 -3.680244,3.0629 -7.082299,5.5673 -7.560099,5.5656 -0.4778,0 -5.547123,-7.4803 -11.265186,-16.6192 z m 59.095772,-14.7963 c -5.546831,-2.0394 -6.916649,-6.5472 -3.076774,-10.1246 3.430109,-3.1957 16.666248,-3.2783 18.359379,-0.1146 1.72888,3.2304 1.355081,7.1922 -0.868453,9.2044 -1.969932,1.7829 -10.679444,2.408 -14.414152,1.0348 z m -18.371124,-12.0911 c -7.971581,-2.8757 -7.974319,-2.8781 -7.113381,-6.2219 0.473679,-1.83985 0.821104,-6.8237 0.772075,-11.07528 l -0.08938,-7.73016 11.842793,4.32191 11.842829,4.32191 -0.652899,4.08318 c -0.366321,2.29065 -0.104329,5.10809 0.596466,6.41774 0.778131,1.454 0.83646,2.3346 0.154671,2.3346 -0.602121,0 -2.777465,1.4774 -4.834035,3.283 -2.056569,1.8058 -3.920456,3.2514 -4.141957,3.2124 -0.221426,-0.038 -3.991299,-1.3652 -8.377336,-2.9474 z m 10.085204,-6.3621 c 2.214743,-2.21477 2.183151,-4.70922 -0.09157,-7.22267 -2.247389,-2.48328 -4.530019,-2.54417 -7.131182,-0.19004 -2.286203,2.06897 -2.622028,5.88528 -0.6881,7.81921 1.841562,1.8415 5.869669,1.6347 7.910735,-0.4065 z m 13.613915,1.1617 c -3.515469,-1.91009 -4.592215,-4.3877 -3.110261,-7.15677 1.779038,-3.32417 4.772457,-4.32326 12.953283,-4.32326 8.651219,0 11.093771,1.44924 11.093771,6.58232 0,4.57821 -3.489569,6.55921 -11.460786,6.50621 -3.627933,-0.025 -7.892167,-0.7479 -9.476007,-1.6085 z m 6.983625,-16.39468 c -2.875593,-1.24984 -3.55669,-2.17283 -3.55669,-4.81977 0,-5.25439 3.198613,-6.68107 14.978918,-6.68107 8.879865,0 10.252745,0.25827 11.247355,2.1168 1.87424,3.50203 1.31951,7.47766 -1.29938,9.31198 -3.1141,2.18124 -16.414367,2.22606 -21.370203,0.0719 z m 18.325193,-16.1519 c -0.003,-0.75238 0.83304,-3.70717 1.85776,-6.5662 1.85813,-5.18422 1.87677,-5.19823 6.92804,-5.19823 9.60842,0 13.01275,8.17134 4.82889,11.59076 -4.67605,1.95377 -13.60717,2.0677 -13.61469,0.17364 z m -6.442821,-14.16088 c 2.956941,-7.93897 5.001841,-14.75038 4.544281,-15.1365 -0.8748,-0.73822 -34.446705,-13.1093 -35.575253,-13.1093 -0.35968,0 -1.244001,1.84673 -1.965298,4.10387 -1.904745,5.96054 -2.828244,6.42477 -4.881639,2.45393 -1.711444,-3.30954 -1.711917,-3.85776 -0.0072,-8.3217 2.128798,-5.57419 6.199438,-9.17977 10.36383,-9.17977 5.411385,0 34.46363,10.95147 37.73769,14.22552 3.49503,3.49504 2.72227,9.7155 -3.16097,25.44525 l -5.21878,13.95318 -3.606484,0 -3.606447,0 5.376184,-14.43448 z M 93.84057,914.8883 c -2.280623,-2.00637 -4.321761,-2.70132 -7.934155,-2.70132 -4.118464,0 -4.863618,-0.33196 -4.863618,-2.16787 0,-4.59835 10.640522,-4.16505 16.383245,0.66716 3.670868,3.08878 4.458808,6.99318 1.400205,6.93795 -1.053328,-0.0183 -3.296887,-1.25016 -4.985677,-2.73592 z m 8.57038,-7.04954 c -3.779209,-3.94463 -12.560876,-7.06793 -17.581828,-6.25313 -4.11044,0.66706 -6.44859,-1.08849 -4.864202,-3.65216 1.570889,-2.54169 12.833813,-1.92918 18.947526,1.03039 6.465994,3.13014 11.176844,8.45408 9.387874,10.60965 -1.76492,2.12658 -2.35711,1.95213 -5.88937,-1.73475 z m 7.74841,-8.2644 c -6.80029,-6.00041 -13.083589,-8.5011 -22.769094,-9.06178 -9.032752,-0.52289 -10.74186,-1.38558 -8.380838,-4.23042 2.251148,-2.71249 16.914158,-1.36766 24.256712,2.22469 7.13708,3.49184 14.18932,9.83486 13.70597,12.32757 -0.58967,3.04096 -2.29611,2.72534 -6.81275,-1.26006 z m 7.49319,-8.24141 c -2.37925,-2.4412 -7.46164,-5.9845 -11.29414,-7.874 -5.97312,-2.9449 -8.551675,-3.52221 -18.057047,-4.04281 -10.156849,-0.5563 -11.088848,-0.7913 -11.088848,-2.79607 0,-1.97738 0.837227,-2.21991 8.669532,-2.51174 14.242443,-0.53067 27.049163,4.50795 36.617833,14.40666 2.3184,2.39838 3.45575,4.46943 3.04385,5.54283 -1.06291,2.76983 -3.28294,2.00327 -7.89118,-2.72487 z"
       id="path4880"
       inkscape:connector-curvature="0" />
  </g>
</svg>
