<?xml version="1.0" encoding="UTF-8" standalone="no"?>
<!-- Created with Inkscape (http://www.inkscape.org/) -->

<svg
   xmlns:dc="http://purl.org/dc/elements/1.1/"
   xmlns:cc="http://creativecommons.org/ns#"
   xmlns:rdf="http://www.w3.org/1999/02/22-rdf-syntax-ns#"
   xmlns:svg="http://www.w3.org/2000/svg"
   xmlns="http://www.w3.org/2000/svg"
   xmlns:sodipodi="http://sodipodi.sourceforge.net/DTD/sodipodi-0.dtd"
   xmlns:inkscape="http://www.inkscape.org/namespaces/inkscape"
   width="176.82698"
   height="176.08189"
   viewBox="0 0 176.82698 176.08189"
   id="svg4168"
   version="1.1"
   inkscape:version="0.91 r13725"
   sodipodi:docname="upload.svg">
  <defs
     id="defs4170" />
  <sodipodi:namedview
     id="base"
     pagecolor="#ffffff"
     bordercolor="#666666"
     borderopacity="1.0"
     inkscape:pageopacity="0.0"
     inkscape:pageshadow="2"
     inkscape:zoom="2.8"
     inkscape:cx="123.189"
     inkscape:cy="81.7621"
     inkscape:document-units="px"
     inkscape:current-layer="layer1"
     showgrid="false"
     units="px"
     inkscape:window-width="1440"
     inkscape:window-height="852"
     inkscape:window-x="0"
     inkscape:window-y="0"
     inkscape:window-maximized="1"
     fit-margin-top="0"
     fit-margin-left="0"
     fit-margin-right="0"
     fit-margin-bottom="0" />
  <metadata
     id="metadata4173">
    <rdf:RDF>
      <cc:Work
         rdf:about="">
        <dc:format>image/svg+xml</dc:format>
        <dc:type
           rdf:resource="http://purl.org/dc/dcmitype/StillImage" />
        <dc:title></dc:title>
      </cc:Work>
    </rdf:RDF>
  </metadata>
  <g
     inkscape:label="Layer 1"
     inkscape:groupmode="layer"
     id="layer1"
     transform="translate(-1.0060134,-873.96692)">
    <path
       style="fill:#000000"
       d="m 73.91468,1047.3878 c -4.70075,-4.0844 -5.261968,-10.3158 -1.347998,-14.9673 2.972195,-3.5323 3.124881,-4.3955 3.124881,-17.6663 l 0,-13.9526 -6.612234,0 c -3.636728,0 -6.612234,-0.4155 -6.612234,-0.9234 0,-1.8584 17.466866,-30.722 18.55132,-30.6556 0.950383,0.0581 16.565029,25.62834 18.366298,30.07621 0.443813,1.09589 -1.216483,1.50279 -6.13227,1.50279 l -6.74086,0 0,14.3557 c 0,9.1598 0.479535,14.6521 1.324891,15.1746 0.728692,0.4504 2.069152,2.6001 2.978807,4.7772 4.34742,10.4049 -8.399116,19.6655 -16.900601,12.2787 z M 26.87681,990.68102 C 16.368804,987.39218 7.5524722,978.99392 2.9216322,967.86184 0.37322129,961.73571 0.36655695,949.69167 2.9072055,942.04207 5.572557,934.01743 13.954561,924.8029 22.089577,920.95442 c 5.889497,-2.78616 6.458097,-3.42093 7.195517,-8.03251 2.141803,-13.3941 14.222531,-28.80565 27.771848,-35.42891 6.710335,-3.28019 8.18183,-3.52608 21.10171,-3.52608 13.441097,0 14.150309,0.13305 22.022208,4.12852 13.91823,7.06451 24.90752,21.575 26.75908,35.33321 0.75466,5.60762 0.9875,5.89098 7.03957,8.56749 7.40311,3.27402 11.9729,7.85153 14.53792,14.56251 1.76014,4.60516 2.25918,4.96591 8.71365,6.29905 20.91205,4.31931 27.74749,29.20696 11.85429,43.16138 -2.4,2.10722 -6.40718,4.39882 -8.90484,5.09242 -2.53657,0.70442 -16.30627,1.26406 -31.19337,1.26783 l -26.65219,0.008 -10.352369,-17.43225 c -5.693803,-9.58774 -10.741846,-17.42188 -11.217879,-17.40917 -0.476033,0.012 -5.400957,7.85722 -10.944277,17.43229 l -10.07876,17.40913 -13.965728,-0.0806 c -7.768449,-0.0449 -16.15499,-0.76561 -18.899291,-1.62456 z"
       id="path5145"
       inkscape:connector-curvature="0" />
  </g>
</svg>
