<?xml version="1.0" encoding="UTF-8" standalone="no"?>
<!-- Created with Inkscape (http://www.inkscape.org/) -->

<svg
   xmlns:dc="http://purl.org/dc/elements/1.1/"
   xmlns:cc="http://creativecommons.org/ns#"
   xmlns:rdf="http://www.w3.org/1999/02/22-rdf-syntax-ns#"
   xmlns:svg="http://www.w3.org/2000/svg"
   xmlns="http://www.w3.org/2000/svg"
   xmlns:sodipodi="http://sodipodi.sourceforge.net/DTD/sodipodi-0.dtd"
   xmlns:inkscape="http://www.inkscape.org/namespaces/inkscape"
   width="164.45256"
   height="164.5302"
   viewBox="0 0 164.45256 164.53019"
   id="svg4168"
   version="1.1"
   inkscape:version="0.91 r13725"
   sodipodi:docname="vaccine-giving.svg">
  <defs
     id="defs4170" />
  <sodipodi:namedview
     id="base"
     pagecolor="#ffffff"
     bordercolor="#666666"
     borderopacity="1.0"
     inkscape:pageopacity="0.0"
     inkscape:pageshadow="2"
     inkscape:zoom="2.8"
     inkscape:cx="114.82618"
     inkscape:cy="75.4253"
     inkscape:document-units="px"
     inkscape:current-layer="layer1"
     showgrid="false"
     units="px"
     inkscape:window-width="1440"
     inkscape:window-height="852"
     inkscape:window-x="0"
     inkscape:window-y="0"
     inkscape:window-maximized="1"
     fit-margin-top="0"
     fit-margin-left="0"
     fit-margin-right="0"
     fit-margin-bottom="0" />
  <metadata
     id="metadata4173">
    <rdf:RDF>
      <cc:Work
         rdf:about="">
        <dc:format>image/svg+xml</dc:format>
        <dc:type
           rdf:resource="http://purl.org/dc/dcmitype/StillImage" />
        <dc:title></dc:title>
      </cc:Work>
    </rdf:RDF>
  </metadata>
  <g
     inkscape:label="Layer 1"
     inkscape:groupmode="layer"
     id="layer1"
     transform="translate(-9.3688341,-879.18181)">
    <path
       style="fill:#000000"
       d="m 14.257415,1042.3697 c -4.98368,-2.7623 -4.8445716,-0.4623 -4.8811194,-80.70462 -0.036583,-80.30958 -0.1211952,-78.84991 4.7219684,-81.44192 2.68641,-1.4377 152.081516,-1.36309 155.243396,0.0776 1.28913,0.58738 2.82443,2.12268 3.41181,3.41181 0.75387,1.6546 1.06792,24.69794 1.06792,78.36003 l 0,76.0162 -2.81163,2.8116 -2.8116,2.8116 -75.820957,-0.034 c -61.087459,-0.029 -76.267695,-0.2818 -78.119788,-1.3082 z m 66.258819,-14.769 c -0.0023,-0.3968 -4.057313,-15.2215 -9.011183,-32.94392 -4.953901,-17.72239 -8.890148,-32.36033 -8.747214,-32.52879 0.142997,-0.16833 2.283343,1.23828 4.756462,3.12607 2.860142,2.18318 5.552727,3.43232 7.398645,3.43232 3.096922,0 20.744641,-5.1649 24.980893,-7.31108 5.063873,-2.56549 5.437203,-9.93458 0.672373,-13.272 -2.969919,-2.08023 -3.938775,-1.98843 -14.551273,1.37839 l -9.198523,2.91824 -12.315611,-9.65131 -12.315579,-9.6513 -10.43404,0 c -10.249855,0 -10.48365,0.0497 -13.245633,2.8116 l -2.81161,2.81163 0,44.80076 0,44.80079 27.4132,0 c 15.077258,0 27.411337,-0.3246 27.409093,-0.7214 z M 42.045676,986.96185 c 0,-3.84747 0,-3.84747 -3.847467,-3.84747 l -3.847466,0 0,-4.80933 0,-4.80934 3.847466,0 3.847467,0 0,-4.32839 0,-4.3284 4.754025,0 4.754026,0 0.295934,4.08793 c 0.294331,4.06805 0.315492,4.08937 4.383707,4.38371 l 4.087933,0.29593 0,4.75403 0,4.75402 -4.3284,0 -4.3284,0 0,3.84747 0,3.84746 -4.809332,0 -4.809333,0 0,-3.84746 z m 115.423984,-6.25214 0,-47.61239 -12.59936,0 c -14.38664,0 -17.84468,1.04 -21.12926,6.35454 -1.10954,1.79526 -2.12136,3.26413 -2.24849,3.26413 -1.70603,0 -9.1016,-3.27808 -8.73474,-3.87168 0.75981,-1.22936 -0.24079,-1.58721 -12.02183,-4.30041 -9.593525,-2.20934 -11.03982,-2.3399 -11.755481,-1.06103 -0.953498,1.70382 -3.650828,0.98758 -3.650828,-0.9694 0,-2.8494 -1.901033,-1.14889 -2.911763,2.60467 -1.070205,3.97449 -0.538805,6.22084 0.91512,3.86834 1.014801,-1.64201 4.401309,-0.999 4.401309,0.8357 0,2.0641 22.653563,7.37521 23.674713,5.55051 0.81422,-1.45498 8.54782,-1.12285 8.54782,0.36708 0,0.49392 -5.4105,11.26978 -12.02334,23.94641 -6.68106,12.80741 -12.023327,24.19578 -12.023327,25.63076 0,6.42796 9.310387,9.69476 13.272987,4.65717 1.02862,-1.30766 6.29266,-11.04656 11.6979,-21.642 5.76376,-11.29818 10.3889,-19.26439 11.18481,-19.26439 1.14308,0 1.3571,5.46067 1.3571,34.62719 l 0,34.62719 12.02333,0 12.02333,0 0,-47.61239 z M 50.221541,927.43189 c 17.217925,-7.94659 10.875056,-33.07913 -7.975284,-31.60071 -5.647183,0.44287 -9.102656,2.49925 -12.440965,7.40374 -5.960809,8.75728 -1.996947,21.06684 7.911984,24.57021 5.158971,1.82399 7.922222,1.74149 12.504265,-0.37324 z m 100.573249,-1.4729 c 4.47342,-2.96037 6.67487,-7.66557 6.67487,-14.26631 0,-12.16389 -12.15815,-19.49931 -23.66089,-14.27538 -5.539,2.5155 -8.3734,6.88058 -8.86302,13.64943 -0.60585,8.37564 3.602,14.83419 11.27971,17.31318 3.88347,1.25389 10.73725,0.1151 14.56933,-2.42092 z"
       id="path5616"
       inkscape:connector-curvature="0" />
  </g>
</svg>
