<?xml version="1.0" encoding="UTF-8" standalone="no"?>
<!-- Created with Inkscape (http://www.inkscape.org/) -->

<svg
   xmlns:dc="http://purl.org/dc/elements/1.1/"
   xmlns:cc="http://creativecommons.org/ns#"
   xmlns:rdf="http://www.w3.org/1999/02/22-rdf-syntax-ns#"
   xmlns:svg="http://www.w3.org/2000/svg"
   xmlns="http://www.w3.org/2000/svg"
   xmlns:sodipodi="http://sodipodi.sourceforge.net/DTD/sodipodi-0.dtd"
   xmlns:inkscape="http://www.inkscape.org/namespaces/inkscape"
   width="68.743622"
   height="178.63722"
   viewBox="0 0 68.743622 178.63722"
   id="svg4168"
   version="1.1"
   inkscape:version="0.91 r13725"
   sodipodi:docname="vaccine.svg">
  <defs
     id="defs4170" />
  <sodipodi:namedview
     id="base"
     pagecolor="#ffffff"
     bordercolor="#666666"
     borderopacity="1.0"
     inkscape:pageopacity="0.0"
     inkscape:pageshadow="2"
     inkscape:zoom="2.8"
     inkscape:cx="124.46644"
     inkscape:cy="82.958783"
     inkscape:document-units="px"
     inkscape:current-layer="layer1"
     showgrid="false"
     units="px"
     inkscape:window-width="1440"
     inkscape:window-height="852"
     inkscape:window-x="0"
     inkscape:window-y="0"
     inkscape:window-maximized="1"
     fit-margin-top="0"
     fit-margin-left="0"
     fit-margin-right="0"
     fit-margin-bottom="0" />
  <metadata
     id="metadata4173">
    <rdf:RDF>
      <cc:Work
         rdf:about="">
        <dc:format>image/svg+xml</dc:format>
        <dc:type
           rdf:resource="http://purl.org/dc/dcmitype/StillImage" />
        <dc:title></dc:title>
      </cc:Work>
    </rdf:RDF>
  </metadata>
  <g
     inkscape:label="Layer 1"
     inkscape:groupmode="layer"
     id="layer1"
     transform="translate(0.2714305,-872.60827)">
    <path
       style="fill:#000000"
       d="m 32.539344,1050.5786 c -0.343909,-0.5599 -0.741747,-7.7192 -0.88407,-15.9097 -0.142337,-8.1904 -0.471476,-17.8742 -0.731453,-21.5195 l -0.472689,-6.6276 -3.979328,0 c -2.188634,0 -4.976589,-0.537 -6.195463,-1.1932 -2.112722,-1.1375 -2.216135,-2.7511 -2.216135,-34.57924 l 0,-33.38604 -9.165818,0 c -7.0214829,0 -9.1658185,-0.37153 -9.1658185,-1.58783 0,-3.29249 3.5847783,-4.72841 10.8643325,-4.35177 9.440686,0.48841 11.402495,-1.28542 10.551827,-9.54071 -0.331191,-3.21395 -0.978203,-7.06899 -1.437826,-8.56673 -0.810148,-2.64 -0.689541,-2.69837 3.94669,-1.91035 l 4.782369,0.81285 -0.31855,-16.42322 -0.318551,-16.4232 -9.45225,0.25281 c -10.092521,0.26972 -11.7930357,-0.86321 -7.357009,-4.90198 3.022543,-2.7519 41.889342,-2.84811 45.770367,-0.11335 1.400515,0.98689 2.546391,2.57589 2.546391,3.53116 0,1.41125 -1.664501,1.70786 -8.879387,1.58219 -4.883662,-0.0849 -9.538408,-0.11796 -10.343878,-0.0733 -1.130283,0.0627 -1.391749,3.69825 -1.145727,15.93022 l 0.31878,15.84881 5.012614,-0.32543 c 4.764587,-0.30929 4.969214,-0.19518 4.135457,2.30528 -0.482443,1.4468 -1.1062,5.57125 -1.386124,9.16542 -0.45278,5.81369 -0.233232,6.68327 1.989452,7.87999 1.389802,0.74829 5.5406,1.17307 9.354462,0.95734 5.7366,-0.32466 7.121727,-0.023 8.483126,1.84956 0.894881,1.2306 1.627058,2.657 1.627058,3.16977 0,0.51277 -4.124618,0.93233 -9.165818,0.93233 l -9.165818,0 0,32.76792 c 0,36.7943 0.0899,36.3906 -8.101931,36.3906 -2.475584,0 -4.589817,0.1298 -4.698283,0.2881 -0.108501,0.1582 -0.495149,10.1012 -0.859296,22.0948 -0.454693,14.976 -1.077797,21.9453 -1.989246,22.2491 -0.729939,0.2437 -1.608548,-0.015 -1.952468,-0.5753 z m -2.105283,-93.85092 c 1.570156,-1.57961 1.862103,-15.65386 0.373698,-18.01584 -0.548716,-0.87079 -2.397266,-1.36877 -4.278933,-1.15265 -3.309181,0.37999 -3.313237,0.3906 -3.650852,9.50149 -0.241557,6.51849 0.08536,9.39122 1.145727,10.06797 2.136541,1.36354 4.823482,1.19548 6.410345,-0.40097 z m 13.889913,-0.23936 c 0.829793,-1.00588 1.209625,-4.83829 0.99959,-10.0856 -0.335622,-8.38501 -0.369421,-8.46681 -3.651628,-8.84372 -1.881662,-0.21593 -3.730224,0.28201 -4.278936,1.15264 -1.488391,2.36199 -1.196437,16.43624 0.373698,18.01585 1.848391,1.85955 4.91831,1.74755 6.557261,-0.23936 z"
       id="path5072"
       inkscape:connector-curvature="0" />
  </g>
</svg>
