<?xml version="1.0" encoding="UTF-8" standalone="no"?>
<!-- Created with Inkscape (http://www.inkscape.org/) -->

<svg
   xmlns:dc="http://purl.org/dc/elements/1.1/"
   xmlns:cc="http://creativecommons.org/ns#"
   xmlns:rdf="http://www.w3.org/1999/02/22-rdf-syntax-ns#"
   xmlns:svg="http://www.w3.org/2000/svg"
   xmlns="http://www.w3.org/2000/svg"
   xmlns:sodipodi="http://sodipodi.sourceforge.net/DTD/sodipodi-0.dtd"
   xmlns:inkscape="http://www.inkscape.org/namespaces/inkscape"
   width="255.06396"
   height="171.32565"
   viewBox="0 0 255.06397 171.32565"
   id="svg4168"
   version="1.1"
   inkscape:version="0.91 r13725"
   sodipodi:docname="village.svg">
  <defs
     id="defs4170" />
  <sodipodi:namedview
     id="base"
     pagecolor="#ffffff"
     bordercolor="#666666"
     borderopacity="1.0"
     inkscape:pageopacity="0.0"
     inkscape:pageshadow="2"
     inkscape:zoom="2.8"
     inkscape:cx="119.18644"
     inkscape:cy="78.998889"
     inkscape:document-units="px"
     inkscape:current-layer="layer1"
     showgrid="false"
     units="px"
     inkscape:window-width="1440"
     inkscape:window-height="852"
     inkscape:window-x="0"
     inkscape:window-y="0"
     inkscape:window-maximized="1"
     fit-margin-top="0"
     fit-margin-left="0"
     fit-margin-right="0"
     fit-margin-bottom="0" />
  <metadata
     id="metadata4173">
    <rdf:RDF>
      <cc:Work
         rdf:about="">
        <dc:format>image/svg+xml</dc:format>
        <dc:type
           rdf:resource="http://purl.org/dc/dcmitype/StillImage" />
        <dc:title></dc:title>
      </cc:Work>
    </rdf:RDF>
  </metadata>
  <g
     inkscape:label="Layer 1"
     inkscape:groupmode="layer"
     id="layer1"
     transform="translate(-5.008571,-875.95994)">
    <path
       style="fill:#000000"
       d="m 91.937243,1045.284 c -2.086396,-1.0042 -4.102829,-3.7622 -4.612005,-6.3081 l -0.904745,-4.5237 -32.570496,0 c -27.470644,0 -32.965214,-0.3946 -35.091345,-2.5209 -2.08067,-2.0806 -2.52085,-6.9826 -2.52085,-28.073 l 0,-25.55227 -5.614616,0 c -3.0880381,0 -5.614615,-0.51387 -5.614615,-1.14238 0,-0.62836 2.9594156,-4.15787 6.576479,-7.84335 l 6.576474,-6.70097 0.241268,-16.62033 0.241268,-16.62033 7.117782,0 7.117781,0 0.155926,8.02088 c 0.139456,7.17495 -0.51724,8.78222 -6.226453,15.23967 -3.510301,3.97034 1.52994,-0.54141 11.200532,-10.0261 9.670581,-9.48469 18.308913,-17.24489 19.196278,-17.24489 0.887372,0 7.717498,6.13598 15.17806,13.6355 7.460561,7.49952 14.293735,13.63549 15.184834,13.63549 0.891093,0 12.276303,-10.63836 25.30047,-23.64084 l 23.68029,-23.6408 22.45918,22.41622 c 12.35255,12.3289 22.45918,21.67381 22.45918,20.76643 0,-0.90732 -3.24846,-4.83782 -7.21879,-8.73441 -7.04004,-6.9093 -7.21879,-7.33467 -7.21879,-17.17784 l 0,-10.09315 10.42714,0 10.42714,0 0,15.5905 0,15.5905 9.27054,-9.1738 c 5.09879,-5.04561 9.97993,-9.1738 10.84698,-9.1738 1.80886,0 52.07039,49.95511 52.07039,51.75291 0,0.65172 -2.52657,1.18489 -5.61461,1.18489 l -5.61462,0 0,26.41247 c 0,24.4714 -0.22806,26.5345 -3.10289,28.0731 -1.7807,0.953 -14.42661,1.6606 -29.67725,1.6606 -22.89958,0 -26.57436,0.3427 -26.57436,2.4791 0,1.3636 -1.77189,4.2511 -3.93753,6.4167 l -3.93751,3.9376 -42.98462,-0.1086 c -28.04094,-0.071 -44.273463,-0.7289 -46.691886,-1.893 z m 56.530477,-3.7276 c 1.91524,-1.9152 2.52085,-5.9618 2.52085,-16.8439 0,-17.05 -2.26241,-20.7397 -12.71698,-20.7397 -9.93538,0 -12.94983,5.0704 -12.94983,21.7818 0,11.9544 0.36746,13.5856 3.56529,15.8254 4.65886,3.2632 16.30791,3.2492 19.58067,-0.021 z m -83.857965,-12.2609 c 2.338824,-3.6862 1.542175,-21.1368 -1.139729,-24.9657 -3.178028,-4.53727 -10.78904,-4.71662 -15.148708,-0.3567 -2.544437,2.5445 -3.208352,5.3473 -3.208352,13.5446 0,8.8804 0.50831,10.7017 3.609396,12.9317 4.083713,2.9367 13.736835,2.2357 15.887393,-1.1537 z m 154.000875,0 c 0.7196,-1.1342 1.31943,-6.6975 1.33294,-12.3629 0.0278,-11.7002 -2.60908,-16.1681 -9.54252,-16.1681 -7.74225,0 -10.24234,3.3879 -10.97348,14.87 -0.58312,9.1578 -0.22565,10.8849 2.89952,14.01 2.83223,2.8323 4.73686,3.3745 9.2699,2.6388 3.1379,-0.509 6.29404,-1.8537 7.01364,-2.9878 z m 20.78097,-75.67757 c -6.48477,-6.60749 -6.75369,-7.27408 -6.28139,-15.57115 0.4388,-7.70849 0.91104,-8.72725 4.26597,-9.20208 2.0749,-0.29357 5.50383,-0.0995 7.61983,0.43152 3.70063,0.92882 3.84728,1.51119 3.84728,15.27796 0,7.87179 -0.6023,14.68457 -1.33844,15.13957 -0.73614,0.45505 -4.3871,-2.27916 -8.11325,-6.07587 z M 22.351647,922.6953 c -0.570274,-2.12933 0.67585,-6.61123 3.217982,-11.57407 4.797598,-9.36604 6.569031,-9.88681 2.602342,-0.76503 -1.480253,3.404 -3.185984,8.3547 -3.790517,11.00159 -0.988542,4.32823 -1.192801,4.46282 -2.029807,1.33751 z m 217.064673,-6.93223 c -1.87353,-3.59448 -3.34944,-8.49833 -3.27978,-10.89749 0.0696,-2.39915 0.48724,-3.27925 0.92796,-1.95581 0.44072,1.32345 2.23865,5.90529 3.9954,10.18187 3.98539,9.702 2.92192,11.43055 -1.64358,2.67143 z m -60.4474,-10.957 c 0.64937,-2.04597 -0.28928,-5.94925 -2.44829,-10.18133 -4.76631,-9.34272 -6.20455,-14.92194 -4.52875,-17.56797 1.07697,-1.70048 1.41177,-1.46622 1.43059,1.00106 0.0128,1.7716 1.82926,6.61123 4.035,10.75471 4.20782,7.90436 5.24434,16.35367 2.23441,18.21387 -1.18788,0.73418 -1.4273,-0.001 -0.72296,-2.22034 z"
       id="path5285"
       inkscape:connector-curvature="0" />
  </g>
</svg>
